<?xml version="1.0" encoding="UTF-8"?> <svg xmlns="http://www.w3.org/2000/svg" width="512" height="512" viewBox="0 0 512 512" fill="none"> <g clip-path="url(#clip0_143_3712)"> <path d="M385.268 121.919L174.699 251.609C162.783 258.965 157.144 273.494 160.983 286.932L183.751 366.932C185.696 373.753 191.766 378.287 198.75 378.287C199.139 378.287 199.532 378.273 199.926 378.244C207.392 377.702 213.3 372.141 214.293 364.729L220.213 320.863C221.011 314.961 223.855 309.471 228.214 305.413L401.979 143.889C407.23 139.02 407.924 131.047 403.597 125.344C399.263 119.636 391.388 118.16 385.268 121.919ZM214.32 290.478C206.512 297.746 201.425 307.567 199.997 318.133L197.126 339.411L180.599 281.339C179.256 276.635 181.234 271.548 185.404 268.974L339.662 173.967L214.32 290.478Z" fill="#108C90"></path> <path d="M503.67 37.3819C497.091 31.8059 488.013 30.2709 479.972 33.3769L15.0803 212.719C5.87328 216.27 -0.0467222 224.939 0.000277816 234.804C0.0482778 244.678 6.05528 253.299 15.3163 256.769L123.906 297.298L166.265 433.523C168.591 441.012 174.462 446.831 181.968 449.089C189.47 451.345 197.572 449.732 203.628 444.779L266.768 393.306C269.8 390.834 274.13 390.712 277.296 393.011L391.179 475.692C395.276 478.67 400.111 480.203 405.002 480.203C407.867 480.203 410.751 479.677 413.519 478.607C421.005 475.712 426.449 469.295 428.079 461.444L511.508 60.1349C513.26 51.6849 510.257 42.9669 503.67 37.3819ZM491.536 55.9899L408.108 457.298C407.806 458.748 406.762 459.351 406.166 459.582C405.566 459.814 404.381 460.071 403.169 459.189L289.282 376.504C284.191 372.808 278.205 370.973 272.23 370.973C265.712 370.973 259.203 373.158 253.883 377.492L190.729 428.977C189.605 429.897 188.438 429.733 187.844 429.554C187.246 429.374 186.179 428.864 185.745 427.468L141.9 286.462C140.963 283.449 138.683 281.039 135.727 279.935L22.4623 237.662C20.7663 237.027 20.4053 235.704 20.4003 234.705C20.3953 233.715 20.7433 232.398 22.4233 231.75L487.316 52.4089C487.318 52.4079 487.321 52.4069 487.324 52.4059C488.834 51.8229 489.951 52.4929 490.483 52.9429C491.017 53.3979 491.867 54.3979 491.536 55.9899Z" fill="#108C90"></path> <path d="M427.481 252.142C421.975 250.946 416.545 254.441 415.35 259.946L413.8 267.086C412.605 272.591 416.099 278.022 421.604 279.217C422.333 279.375 423.06 279.451 423.778 279.451C428.473 279.451 432.698 276.189 433.736 271.414L435.286 264.274C436.48 258.769 432.985 253.338 427.481 252.142Z" fill="#108C90"></path> <path d="M417.281 299.122C411.769 297.927 406.343 301.421 405.149 306.926L381.69 414.977C380.495 420.482 383.989 425.913 389.493 427.108C390.223 427.266 390.95 427.342 391.667 427.342C396.363 427.342 400.587 424.08 401.625 419.305L425.084 311.253C426.279 305.748 422.785 300.317 417.281 299.122Z" fill="#108C90"></path> </g> <defs> <clipPath id="clip0_143_3712"> <rect width="512" height="512" fill="white"></rect> </clipPath> </defs> </svg> 