<?xml version="1.0" encoding="UTF-8"?> <svg xmlns="http://www.w3.org/2000/svg" width="608" height="115" viewBox="0 0 608 115" fill="none"> <path d="M4.98047 96.2969L13.5254 97.5664C13.8835 100.203 14.8763 102.124 16.5039 103.328C18.6849 104.956 21.6634 105.77 25.4395 105.77C29.5085 105.77 32.6497 104.956 34.8633 103.328C37.0768 101.701 38.5742 99.4219 39.3555 96.4922C39.8112 94.7018 40.0228 90.9421 39.9902 85.2129C36.1491 89.7376 31.3639 92 25.6348 92C18.5059 92 12.9883 89.4284 9.08203 84.2852C5.17578 79.1419 3.22266 72.9733 3.22266 65.7793C3.22266 60.8314 4.11784 56.2741 5.9082 52.1074C7.69857 47.9082 10.2865 44.6693 13.6719 42.3906C17.0898 40.112 21.0938 38.9727 25.6836 38.9727C31.8034 38.9727 36.849 41.4466 40.8203 46.3945V40.1445H48.9258V84.9688C48.9258 93.0417 48.0957 98.7546 46.4355 102.107C44.8079 105.493 42.2038 108.162 38.623 110.115C35.0749 112.068 30.6966 113.045 25.4883 113.045C19.3034 113.045 14.3066 111.645 10.498 108.846C6.68945 106.079 4.85026 101.896 4.98047 96.2969ZM12.2559 65.1445C12.2559 71.9479 13.6068 76.9121 16.3086 80.0371C19.0104 83.1621 22.3958 84.7246 26.4648 84.7246C30.5013 84.7246 33.8867 83.1784 36.6211 80.0859C39.3555 76.9609 40.7227 72.0781 40.7227 65.4375C40.7227 59.0898 39.3066 54.3047 36.4746 51.082C33.6751 47.8594 30.2897 46.248 26.3184 46.248C22.4121 46.248 19.0918 47.8431 16.3574 51.0332C13.623 54.1908 12.2559 58.8945 12.2559 65.1445ZM97.7539 75.3008L106.836 76.4238C105.404 81.7298 102.751 85.8477 98.877 88.7773C95.0033 91.707 90.0553 93.1719 84.0332 93.1719C76.4486 93.1719 70.4264 90.8444 65.9668 86.1895C61.5397 81.502 59.3262 74.9427 59.3262 66.5117C59.3262 57.7878 61.5723 51.0169 66.0645 46.1992C70.5566 41.3815 76.3835 38.9727 83.5449 38.9727C90.4785 38.9727 96.1426 41.3327 100.537 46.0527C104.932 50.7728 107.129 57.4134 107.129 65.9746C107.129 66.4954 107.113 67.2767 107.08 68.3184H68.4082C68.7337 74.015 70.3451 78.377 73.2422 81.4043C76.1393 84.4316 79.7526 85.9453 84.082 85.9453C87.3047 85.9453 90.0553 85.099 92.334 83.4062C94.6126 81.7135 96.4193 79.0117 97.7539 75.3008ZM68.8965 61.0918H97.8516C97.4609 56.7298 96.3542 53.4583 94.5312 51.2773C91.7318 47.8919 88.1022 46.1992 83.6426 46.1992C79.6061 46.1992 76.2044 47.5501 73.4375 50.252C70.7031 52.9538 69.1895 56.5671 68.8965 61.0918ZM137.109 84.1387L138.379 91.9023C135.905 92.4232 133.691 92.6836 131.738 92.6836C128.548 92.6836 126.074 92.179 124.316 91.1699C122.559 90.1608 121.322 88.8424 120.605 87.2148C119.889 85.5547 119.531 82.0879 119.531 76.8145V46.9805H113.086V40.1445H119.531V27.3027L128.271 22.0293V40.1445H137.109V46.9805H128.271V77.3027C128.271 79.8092 128.418 81.4206 128.711 82.1367C129.036 82.8529 129.541 83.4225 130.225 83.8457C130.941 84.2689 131.95 84.4805 133.252 84.4805C134.229 84.4805 135.514 84.3665 137.109 84.1387Z" fill="#F87851"></path> <path d="M180.424 113.045C175.574 106.925 171.472 99.7637 168.119 91.5605C164.766 83.3574 163.09 74.8613 163.09 66.0723C163.09 58.3249 164.343 50.903 166.85 43.8066C169.779 35.571 174.304 27.3678 180.424 19.1973H186.723C182.784 25.9681 180.18 30.8021 178.91 33.6992C176.924 38.1914 175.362 42.8789 174.223 47.7617C172.823 53.849 172.123 59.9688 172.123 66.1211C172.123 81.7786 176.99 97.4199 186.723 113.045H180.424ZM364.018 113.045H357.719C367.452 97.4199 372.318 81.7786 372.318 66.1211C372.318 60.0013 371.618 53.9303 370.219 47.9082C369.112 43.0254 367.566 38.3379 365.58 33.8457C364.311 30.916 361.69 26.0332 357.719 19.1973H364.018C370.137 27.3678 374.662 35.571 377.592 43.8066C380.098 50.903 381.352 58.3249 381.352 66.0723C381.352 74.8613 379.659 83.3574 376.273 91.5605C372.921 99.7637 368.835 106.925 364.018 113.045Z" fill="#FFA488"></path> <path d="M192.289 92V84.8711L225.297 46.9805C221.553 47.1758 218.249 47.2734 215.385 47.2734H194.242V40.1445H236.625V45.9551L208.549 78.8652L203.129 84.8711C207.068 84.5781 210.762 84.4316 214.213 84.4316H238.188V92H192.289ZM282.426 75.3008L291.508 76.4238C290.076 81.7298 287.423 85.8477 283.549 88.7773C279.675 91.707 274.727 93.1719 268.705 93.1719C261.12 93.1719 255.098 90.8444 250.639 86.1895C246.212 81.502 243.998 74.9427 243.998 66.5117C243.998 57.7878 246.244 51.0169 250.736 46.1992C255.229 41.3815 261.055 38.9727 268.217 38.9727C275.15 38.9727 280.814 41.3327 285.209 46.0527C289.604 50.7728 291.801 57.4134 291.801 65.9746C291.801 66.4954 291.785 67.2767 291.752 68.3184H253.08C253.406 74.015 255.017 78.377 257.914 81.4043C260.811 84.4316 264.424 85.9453 268.754 85.9453C271.977 85.9453 274.727 85.099 277.006 83.4062C279.285 81.7135 281.091 79.0117 282.426 75.3008ZM253.568 61.0918H282.523C282.133 56.7298 281.026 53.4583 279.203 51.2773C276.404 47.8919 272.774 46.1992 268.314 46.1992C264.278 46.1992 260.876 47.5501 258.109 50.252C255.375 52.9538 253.861 56.5671 253.568 61.0918ZM302.592 92V40.1445H310.502V47.5176C314.311 41.821 319.812 38.9727 327.006 38.9727C330.131 38.9727 332.995 39.5423 335.6 40.6816C338.236 41.7884 340.206 43.2533 341.508 45.0762C342.81 46.8991 343.721 49.0638 344.242 51.5703C344.568 53.1979 344.73 56.0462 344.73 60.1152V92H335.941V60.457C335.941 56.8763 335.6 54.207 334.916 52.4492C334.232 50.6589 333.012 49.2428 331.254 48.2012C329.529 47.127 327.494 46.5898 325.15 46.5898C321.407 46.5898 318.168 47.778 315.434 50.1543C312.732 52.5306 311.381 57.0391 311.381 63.6797V92H302.592Z" fill="white"></path> <path d="M486.57 92V85.457C483.283 90.6003 478.449 93.1719 472.068 93.1719C467.934 93.1719 464.126 92.0326 460.643 89.7539C457.192 87.4753 454.507 84.3014 452.586 80.2324C450.698 76.1309 449.754 71.4271 449.754 66.1211C449.754 60.9453 450.617 56.2578 452.342 52.0586C454.067 47.8268 456.655 44.5879 460.105 42.3418C463.556 40.0957 467.413 38.9727 471.678 38.9727C474.803 38.9727 477.586 39.64 480.027 40.9746C482.469 42.2767 484.454 43.9857 485.984 46.1016V20.418H494.725V92H486.57ZM458.787 66.1211C458.787 72.7617 460.187 77.7259 462.986 81.0137C465.786 84.3014 469.09 85.9453 472.898 85.9453C476.74 85.9453 479.995 84.3828 482.664 81.2578C485.366 78.1003 486.717 73.2988 486.717 66.8535C486.717 59.7572 485.35 54.5488 482.615 51.2285C479.881 47.9082 476.512 46.248 472.508 46.248C468.602 46.248 465.33 47.8431 462.693 51.0332C460.089 54.2233 458.787 59.2526 458.787 66.1211ZM544.09 75.3008L553.172 76.4238C551.74 81.7298 549.087 85.8477 545.213 88.7773C541.339 91.707 536.391 93.1719 530.369 93.1719C522.785 93.1719 516.762 90.8444 512.303 86.1895C507.876 81.502 505.662 74.9427 505.662 66.5117C505.662 57.7878 507.908 51.0169 512.4 46.1992C516.893 41.3815 522.719 38.9727 529.881 38.9727C536.814 38.9727 542.479 41.3327 546.873 46.0527C551.268 50.7728 553.465 57.4134 553.465 65.9746C553.465 66.4954 553.449 67.2767 553.416 68.3184H514.744C515.07 74.015 516.681 78.377 519.578 81.4043C522.475 84.4316 526.089 85.9453 530.418 85.9453C533.641 85.9453 536.391 85.099 538.67 83.4062C540.949 81.7135 542.755 79.0117 544.09 75.3008ZM515.232 61.0918H544.188C543.797 56.7298 542.69 53.4583 540.867 51.2773C538.068 47.8919 534.438 46.1992 529.979 46.1992C525.942 46.1992 522.54 47.5501 519.773 50.252C517.039 52.9538 515.525 56.5671 515.232 61.0918ZM578.66 92L558.934 40.1445H568.211L579.344 71.1992C580.548 74.5521 581.655 78.0352 582.664 81.6484C583.445 78.9141 584.536 75.6263 585.936 71.7852L597.459 40.1445H606.492L586.863 92H578.66Z" fill="white"></path> <circle cx="415.5" cy="61.5" r="15.5" fill="white"></circle> </svg> 