<?xml version="1.0" encoding="UTF-8"?> <svg xmlns="http://www.w3.org/2000/svg" width="512" height="512" viewBox="0 0 512 512" fill="none"> <g clip-path="url(#clip0_28_9493)"> <path d="M401.067 426.667H110.933C106.223 426.667 102.4 430.481 102.4 435.2V475.597C102.4 495.676 118.733 512 138.803 512H373.197C393.267 512 409.6 495.676 409.6 475.597V435.2C409.6 430.481 405.777 426.667 401.067 426.667ZM392.533 475.597C392.533 486.255 383.863 494.933 373.205 494.933H138.803C128.136 494.933 119.466 486.255 119.466 475.597V443.733H392.533V475.597Z" fill="#2683E8"></path> <path d="M281.6 460.8H230.4C225.69 460.8 221.867 464.614 221.867 469.333C221.867 474.052 225.69 477.866 230.4 477.866H281.6C286.31 477.866 290.133 474.052 290.133 469.333C290.133 464.614 286.31 460.8 281.6 460.8Z" fill="#2683E8"></path> <path d="M358.4 460.8H324.267C319.557 460.8 315.734 464.614 315.734 469.333C315.734 474.052 319.557 477.866 324.267 477.866H358.4C363.11 477.866 366.933 474.052 366.933 469.333C366.933 464.614 363.11 460.8 358.4 460.8Z" fill="#2683E8"></path> <path d="M187.733 460.8H153.6C148.89 460.8 145.067 464.614 145.067 469.333C145.067 474.052 148.89 477.866 153.6 477.866H187.733C192.443 477.866 196.266 474.052 196.266 469.333C196.266 464.614 192.444 460.8 187.733 460.8Z" fill="#2683E8"></path> <path d="M373.205 0H138.803C118.733 0 102.4 16.324 102.4 36.403V76.8C102.4 81.519 106.223 85.333 110.933 85.333H401.066C405.776 85.333 409.599 81.519 409.599 76.8V36.403C409.6 16.324 393.267 0 373.205 0ZM392.533 68.267H119.467V36.403C119.467 25.745 128.137 17.066 138.804 17.066H373.198C383.865 17.066 392.534 25.744 392.534 36.403V68.267H392.533Z" fill="#2683E8"></path> <path d="M298.667 34.1331H213.334C208.624 34.1331 204.801 37.9471 204.801 42.6661C204.801 47.3851 208.624 51.1991 213.334 51.1991H298.667C303.377 51.1991 307.2 47.3851 307.2 42.6661C307.2 37.9471 303.377 34.1331 298.667 34.1331Z" fill="#2683E8"></path> <path d="M401.067 68.267H110.933C106.223 68.267 102.4 72.081 102.4 76.8V435.2C102.4 439.919 106.223 443.733 110.933 443.733H401.066C405.776 443.733 409.599 439.919 409.599 435.2V76.8C409.6 72.081 405.777 68.267 401.067 68.267ZM392.533 426.667H119.467V85.333H392.534V426.667H392.533Z" fill="#2683E8"></path> <path d="M451.934 193.886C450.611 189.346 445.875 186.761 441.353 188.075C436.83 189.389 434.228 194.125 435.542 198.648C440.935 217.199 443.674 236.502 443.674 256.001C443.674 275.577 440.918 294.922 435.482 313.533C434.168 318.056 436.762 322.792 441.285 324.114C442.087 324.344 442.889 324.455 443.683 324.455C447.378 324.455 450.783 322.04 451.875 318.32C457.763 298.156 460.75 277.189 460.75 256.001C460.749 234.888 457.779 213.982 451.934 193.886Z" fill="#2683E8"></path> <path d="M76.5178 313.532C71.0818 294.929 68.3258 275.576 68.3258 256C68.3258 236.501 71.0648 217.199 76.4668 198.639C77.7808 194.116 75.1778 189.38 70.6558 188.066C66.1248 186.752 61.3888 189.346 60.0748 193.877C54.2298 213.973 51.2598 234.871 51.2598 255.991C51.2598 277.188 54.2468 298.154 60.1348 318.31C61.2188 322.039 64.6238 324.454 68.3178 324.454C69.1118 324.454 69.9138 324.352 70.7158 324.113C75.2468 322.79 77.8408 318.054 76.5178 313.532Z" fill="#2683E8"></path> <path d="M17.067 256C17.067 221.269 22.861 189.167 33.391 165.615C35.311 161.314 33.382 156.271 29.082 154.342C24.781 152.422 19.738 154.359 17.809 158.651C6.323 184.354 0 218.914 0 256C0 293.086 6.323 327.646 17.801 353.348C19.226 356.514 22.341 358.4 25.6 358.4C26.769 358.4 27.947 358.17 29.082 357.658C33.383 355.738 35.311 350.686 33.391 346.385C22.861 322.833 17.067 290.731 17.067 256Z" fill="#2683E8"></path> <path d="M494.191 158.652C492.262 154.36 487.228 152.414 482.918 154.343C478.617 156.263 476.689 161.315 478.609 165.616C489.139 189.168 494.933 221.27 494.933 256.001C494.933 290.732 489.139 322.834 478.617 346.386C476.697 350.687 478.626 355.73 482.926 357.659C484.052 358.171 485.239 358.401 486.399 358.401C489.659 358.401 492.773 356.515 494.19 353.349C505.677 327.646 512 293.086 512 256C512 218.914 505.677 184.354 494.191 158.652Z" fill="#2683E8"></path> <path d="M332.8 349.867H230.4C225.69 349.867 221.867 353.681 221.867 358.4C221.867 363.119 225.69 366.933 230.4 366.933H332.8C337.51 366.933 341.333 363.119 341.333 358.4C341.333 353.681 337.51 349.867 332.8 349.867Z" fill="#2683E8"></path> <path d="M196.011 349.867H179.2C174.49 349.867 170.667 353.681 170.667 358.4C170.667 363.119 174.49 366.933 179.2 366.933H196.011C200.721 366.933 204.544 363.119 204.544 358.4C204.544 353.681 200.721 349.867 196.011 349.867Z" fill="#2683E8"></path> <path d="M221.867 384H179.2C174.49 384 170.667 387.814 170.667 392.533C170.667 397.252 174.49 401.066 179.2 401.066H221.867C226.577 401.066 230.4 397.252 230.4 392.533C230.4 387.814 226.577 384 221.867 384Z" fill="#2683E8"></path> <path d="M332.8 384H307.2C302.49 384 298.667 387.814 298.667 392.533C298.667 397.252 302.49 401.066 307.2 401.066H332.8C337.51 401.066 341.333 397.252 341.333 392.533C341.333 387.814 337.51 384 332.8 384Z" fill="#2683E8"></path> <path d="M273.067 384H256C251.29 384 247.467 387.814 247.467 392.533C247.467 397.252 251.29 401.066 256 401.066H273.067C277.777 401.066 281.6 397.252 281.6 392.533C281.6 387.814 277.777 384 273.067 384Z" fill="#2683E8"></path> <path d="M256 110.933C199.535 110.933 153.6 156.868 153.6 213.333C153.6 269.798 199.535 315.733 256 315.733C312.465 315.733 358.4 269.798 358.4 213.333C358.4 156.868 312.465 110.933 256 110.933ZM256 298.667C208.947 298.667 170.667 260.386 170.667 213.334C170.667 166.281 208.947 128 256 128C303.053 128 341.333 166.281 341.333 213.333C341.333 260.386 303.053 298.667 256 298.667Z" fill="#2683E8"></path> <path d="M256 145.067C237.175 145.067 221.867 160.376 221.867 179.2C221.867 198.024 237.176 213.333 256 213.333C274.825 213.333 290.133 198.024 290.133 179.2C290.133 160.376 274.825 145.067 256 145.067ZM256 196.267C246.588 196.267 238.933 188.613 238.933 179.2C238.933 169.787 246.587 162.133 256 162.133C265.412 162.133 273.067 169.787 273.067 179.2C273.067 188.613 265.412 196.267 256 196.267Z" fill="#2683E8"></path> <path d="M339.115 262.187C323.063 242.586 291.217 230.4 256 230.4C220.783 230.4 188.937 242.586 172.885 262.187C170.453 265.165 170.308 269.406 172.535 272.538C191.752 299.58 222.95 315.734 256 315.734C289.05 315.734 320.247 299.58 339.465 272.538C341.692 269.406 341.547 265.165 339.115 262.187ZM256 298.667C230.793 298.667 206.874 287.386 190.711 268.169C204.748 255.437 229.444 247.467 256 247.467C282.556 247.467 307.251 255.437 321.289 268.169C305.126 287.386 281.208 298.667 256 298.667Z" fill="#2683E8"></path> </g> <defs> <clipPath id="clip0_28_9493"> <rect width="512" height="512" fill="white"></rect> </clipPath> </defs> </svg> 