<?xml version="1.0" encoding="UTF-8"?> <svg xmlns="http://www.w3.org/2000/svg" width="122" height="122" viewBox="0 0 122 122" fill="none"> <path d="M101.674 20.3527C105.37 20.3387 108.592 17.8338 109.516 14.255H122V10.1898H109.516C108.592 6.61101 105.37 4.10614 101.674 4.09216C97.1841 4.09216 93.5441 7.73223 93.5441 12.2224C93.5512 13.6693 93.9493 15.0873 94.6965 16.3262L91.1253 19.8974C74.0378 -2.36453 42.1388 -6.55923 19.8769 10.5283C-2.38504 27.6158 -6.57974 59.5151 10.5078 81.777C26.6372 102.79 56.2036 107.888 78.438 93.4883L84.5723 99.6226L87.4464 102.497L103.808 118.859C107.97 123.02 114.716 123.02 118.878 118.859C123.039 114.697 123.039 107.951 118.878 103.789L102.516 87.4272L99.6417 84.5532L93.5075 78.4189C104.397 61.6462 104.397 40.0363 93.5075 23.2633L97.5726 19.1982C98.8107 19.9456 100.228 20.3445 101.674 20.3527ZM101.674 8.15729C103.92 8.15729 105.739 9.97719 105.739 12.2224C105.739 14.4676 103.92 16.2875 101.674 16.2875C99.4291 16.2875 97.6092 14.4676 97.6092 12.2224C97.6092 9.97719 99.4293 8.15729 101.674 8.15729ZM116.004 106.663C118.607 109.208 118.655 113.382 116.11 115.985C113.565 118.588 109.392 118.635 106.788 116.091C106.753 116.056 106.718 116.021 106.683 115.985L90.3204 99.6226L99.6417 90.3013L116.004 106.663ZM96.7677 87.4272L87.4464 96.7486L81.8202 91.1224C82.1068 90.9029 82.3751 90.661 82.6576 90.4354C82.9402 90.2098 83.2674 89.9395 83.5703 89.6854C84.0154 89.3114 84.4544 88.9334 84.8853 88.5451C85.1069 88.3419 85.3183 88.1386 85.5357 87.9354C86.3691 87.1549 87.176 86.3479 87.9565 85.5146C88.1598 85.2971 88.363 85.0857 88.5663 84.8642C88.9545 84.4333 89.3326 83.9942 89.7066 83.5491C89.9614 83.2483 90.2114 82.9442 90.4566 82.6365C90.6802 82.356 90.922 82.0877 91.1416 81.8011L96.7677 87.4272ZM88.8854 77.986C88.2452 78.8803 87.5846 79.7563 86.8874 80.5999C86.6841 80.8458 86.4667 81.0836 86.2573 81.3255C85.6354 82.0491 84.9931 82.7511 84.3304 83.4312C84.0418 83.7292 83.7484 84.0227 83.4503 84.3113C82.7727 84.9739 82.071 85.6162 81.3446 86.2382C81.1027 86.4414 80.8649 86.663 80.619 86.8683C79.7755 87.5655 78.8994 88.226 78.0051 88.8663C56.964 103.898 27.7208 99.0271 12.6887 77.986C-2.34337 56.9449 2.52792 27.7016 23.569 12.6696C44.6101 -2.3625 73.8533 2.50854 88.8854 23.5499C100.517 39.8312 100.517 61.7047 88.8854 77.986Z" fill="#19294F"></path> </svg> 