<?xml version="1.0" encoding="UTF-8"?> <svg xmlns="http://www.w3.org/2000/svg" width="512" height="512" viewBox="0 0 512 512" fill="none"> <g clip-path="url(#clip0_153_4887)"> <path d="M93.4066 144.223H103.097C106.809 144.223 110.153 146.449 111.596 149.868L208.285 379.996L258.809 274L306.029 379.996L399.79 149.959C401.2 146.487 404.578 144.214 408.318 144.214H418.598C420.623 144.214 422.269 142.577 422.269 140.553V132H351.605V140.553C351.605 142.577 353.25 144.223 355.275 144.223H371.609C376.776 144.223 380.339 149.398 378.504 154.223L312.429 324.759L274.669 236.021L315.11 149.534C316.623 146.297 319.881 144.227 323.456 144.227H334.388C336.425 144.227 338.062 142.577 338.062 140.553V132.004H272.355V140.553C272.355 142.577 273.992 144.227 276.029 144.227H285.827C291.155 144.227 294.718 149.687 292.586 154.557L266.405 214.227L240.767 154.503C238.681 149.637 242.252 144.214 247.543 144.214C249.567 144.214 251.217 142.577 251.217 140.553V132.004H188.471V140.553C188.471 142.577 190.116 144.214 192.145 144.214H198.891C202.59 144.214 205.922 146.429 207.37 149.823L250.755 251.625L216.425 326.037L148.537 154.305C146.631 149.472 150.194 144.223 155.394 144.223H169.382C171.37 144.223 172.998 142.643 173.052 140.652L173.287 132H89.7324V140.553C89.7324 142.577 91.3778 144.223 93.4066 144.223Z" fill="#534E4D"></path> <path d="M0 0V512H512V0H0ZM480.33 480.33H31.6701V31.6701H480.33V480.33Z" fill="#534E4D"></path> </g> <defs> <clipPath id="clip0_153_4887"> <rect width="512" height="512" fill="white"></rect> </clipPath> </defs> </svg> 