<?xml version="1.0" encoding="UTF-8"?> <svg xmlns="http://www.w3.org/2000/svg" width="512" height="512" viewBox="0 0 512 512" fill="none"> <g clip-path="url(#clip0_28_9648)"> <path d="M235.04 448.979C230.868 448.979 227.052 446.28 225.638 442.364C224.255 438.534 225.387 434.15 228.447 431.463C231.718 428.59 236.617 428.184 240.317 430.483C243.829 432.665 245.677 436.959 244.827 441.007C243.866 445.583 239.729 448.979 235.04 448.979V448.979Z" fill="#2683E8"></path> <path d="M486.127 28.381H194.542C180.275 28.381 168.669 39.987 168.669 54.254V165.846H25.873C11.606 165.846 0 177.452 0 191.719V423.278C0 437.544 11.606 449.15 25.873 449.15H94.179L102.218 476.445C103.14 479.575 105.531 482.058 108.624 483.098C109.665 483.448 110.74 483.619 111.81 483.619C113.92 483.619 116.005 482.951 117.748 481.666L161.849 449.132L189.705 448.979C195.227 448.949 199.68 444.447 199.65 438.924C199.62 433.419 195.149 428.979 189.651 428.979H189.595L158.48 429.15C156.362 429.162 154.302 429.845 152.598 431.103L117.369 457.093L111.252 436.324C109.999 432.07 106.094 429.149 101.659 429.149H25.873C22.635 429.149 20 426.515 20 423.277V191.719C20 188.481 22.635 185.846 25.873 185.846H317.459C320.697 185.846 323.331 188.481 323.331 191.719V423.278C323.331 426.516 320.697 429.15 317.505 429.15L280.108 428.979H280.061C274.56 428.979 270.087 433.426 270.062 438.933C270.037 444.456 274.494 448.954 280.016 448.979L317.459 449.15C331.725 449.15 343.331 437.544 343.331 423.278V311.685H350.177L394.253 344.202C395.995 345.487 398.08 346.155 400.191 346.155C401.26 346.155 402.337 345.983 403.378 345.634C406.471 344.594 408.861 342.111 409.783 338.981L417.822 311.686H486.128C500.395 311.686 512.001 300.08 512.001 285.813V54.254C512 39.987 500.394 28.381 486.127 28.381V28.381ZM492 285.812C492 289.05 489.365 291.685 486.127 291.685H410.342C405.907 291.685 402.002 294.606 400.749 298.86L394.632 319.629L359.403 293.639C357.684 292.37 355.603 291.686 353.466 291.686H343.33V228.787H444.043C449.565 228.787 454.043 224.309 454.043 218.787C454.043 213.265 449.565 208.787 444.043 208.787H343.331V191.721C343.331 189.702 343.098 187.735 342.659 185.848H444.044C449.566 185.848 454.044 181.37 454.044 175.848C454.044 170.326 449.566 165.848 444.044 165.848H188.668V54.254C188.668 51.016 191.303 48.381 194.541 48.381H486.126C489.364 48.381 491.999 51.016 491.999 54.254V285.812H492Z" fill="#2683E8"></path> <path d="M444.044 83.995H236.624C231.101 83.995 226.624 88.473 226.624 93.995C226.624 99.517 231.101 103.995 236.624 103.995H444.044C449.566 103.995 454.044 99.517 454.044 93.995C454.044 88.473 449.566 83.995 444.044 83.995Z" fill="#2683E8"></path> <path d="M444.044 124.92H236.624C231.101 124.92 226.624 129.398 226.624 134.92C226.624 140.442 231.101 144.92 236.624 144.92H444.044C449.566 144.92 454.044 140.442 454.044 134.92C454.044 129.398 449.566 124.92 444.044 124.92V124.92Z" fill="#2683E8"></path> <path d="M294.313 395.086C295.985 391.64 295.542 387.54 293.169 384.531L214.662 284.921C212.766 282.516 209.871 281.111 206.808 281.111C203.745 281.111 200.85 282.515 198.954 284.921L161.05 333.013L135.148 298.959C133.288 296.513 130.406 295.058 127.333 295.014C124.269 294.962 121.337 296.34 119.407 298.733L50.2322 384.442C47.8132 387.439 47.3302 391.559 48.9912 395.035C50.6522 398.511 54.1612 400.723 58.0132 400.723H285.314C289.147 400.722 292.642 398.533 294.313 395.086V395.086ZM126.957 321.224L148.264 349.237L123.449 380.722H78.9372L126.957 321.224ZM148.915 380.722L206.809 307.267L264.703 380.722H148.915Z" fill="#2683E8"></path> <path d="M149.308 274.131C130.067 274.131 114.414 258.478 114.414 239.237C114.414 219.996 130.067 204.342 149.308 204.342C168.549 204.342 184.203 219.995 184.203 239.237C184.202 258.478 168.548 274.131 149.308 274.131ZM149.308 224.343C141.096 224.343 134.414 231.025 134.414 239.238C134.414 247.45 141.096 254.132 149.308 254.132C157.521 254.132 164.203 247.45 164.203 239.238C164.202 231.024 157.521 224.343 149.308 224.343Z" fill="#2683E8"></path> </g> <defs> <clipPath id="clip0_28_9648"> <rect width="512" height="512" fill="white"></rect> </clipPath> </defs> </svg> 