<?xml version="1.0" encoding="UTF-8"?> <svg xmlns="http://www.w3.org/2000/svg" width="512" height="512" viewBox="0 0 512 512" fill="none"> <g clip-path="url(#clip0_143_3748)"> <path d="M316 260C310.48 260 306 264.48 306 270C306 275.52 310.48 280 316 280C321.52 280 326 275.52 326 270C326 264.48 321.52 260 316 260Z" fill="#108C90"></path> <path d="M102.168 369.786L2.16829 495.786C-0.218429 498.789 -0.671554 502.895 0.996415 506.348C2.66438 509.805 6.16438 512 10.0003 512H502C505.836 512 509.336 509.805 511.004 506.348C512.676 502.895 512.219 498.789 509.832 495.786L409.832 369.786C407.938 367.395 405.051 366 402 366H314.403L389.188 248.703C406.731 222.403 416 191.731 416 160C416 71.7777 344.227 0.000366211 256 0.000366211C167.774 0.000366211 96.0003 71.7777 96.0003 160C96.0003 191.731 105.27 222.399 122.813 248.703L197.598 366H110C106.95 366 104.067 367.395 102.168 369.786V369.786ZM64.8324 449H125.297L91.1722 492H30.7034L64.8324 449ZM210.352 386L237.766 429H166.703L200.832 386H210.352ZM301.653 386H311.172L345.297 429H274.239L301.653 386ZM361.172 449L395.297 492H116.703L150.832 449H361.172ZM420.832 492L386.703 449H447.172L481.297 492H420.832ZM431.297 429H370.832L336.703 386H397.172L431.297 429ZM139.508 237.688C124.129 214.664 116 187.801 116 160C116 82.8051 178.805 20.0004 256 20.0004C333.196 20.0004 396 82.8051 396 160C396 187.801 387.871 214.664 372.496 237.688C372.453 237.746 372.418 237.805 372.379 237.864C365.813 248.164 261.059 412.469 256 420.399C243.278 400.442 152.578 258.184 139.621 237.864C139.586 237.805 139.547 237.746 139.508 237.688V237.688ZM175.297 386L141.172 429H80.7034L114.832 386H175.297Z" fill="#108C90"></path> <path d="M256 260C310.898 260 356 215.543 356 160C356 104.86 311.141 60.0002 256 60.0002C200.859 60.0002 156 104.86 156 160C156 215.559 201.117 260 256 260ZM256 80.0002C300.113 80.0002 336 115.887 336 160C336 204.524 299.824 240 256 240C212.164 240 176 204.524 176 160C176 115.887 211.887 80.0002 256 80.0002Z" fill="#108C90"></path> <path d="M298.121 294.125C293.394 291.273 287.246 292.797 284.394 297.527L247.433 358.848C244.582 363.578 246.105 369.723 250.836 372.574C255.586 375.437 261.722 373.883 264.562 369.172L301.523 307.851C304.375 303.121 302.851 296.976 298.121 294.125V294.125Z" fill="#108C90"></path> </g> <defs> <clipPath id="clip0_143_3748"> <rect width="512" height="512" fill="white"></rect> </clipPath> </defs> </svg> 