<?xml version="1.0" encoding="UTF-8"?> <svg xmlns="http://www.w3.org/2000/svg" width="512" height="512" viewBox="0 0 512 512" fill="none"> <g clip-path="url(#clip0_143_3703)"> <path d="M486.4 0H392.533C378.395 0 366.933 11.4615 366.933 25.6V76.3477C365.134 75.564 363.25 74.9913 361.319 74.6411L268.877 58.3168C254.962 55.8932 241.706 65.1742 239.224 79.0784L221.218 181.197C219.318 179.909 217.254 178.879 215.083 178.133L125.807 149.12C112.361 144.752 97.9205 152.11 93.5511 165.555L85.7516 189.568C85.7516 189.679 85.6151 189.756 85.5809 189.867C85.5468 189.978 85.5809 190.097 85.5383 190.208L1.25452 449.613C-3.11337 463.058 4.24461 477.499 17.6897 481.869L106.965 510.882C109.528 511.716 112.206 512.143 114.901 512.145C125.982 512.115 135.79 504.974 139.221 494.438L197.735 314.385L181.436 406.835L174.02 448.853L171.059 465.655C169.879 472.342 171.403 479.224 175.296 484.787C179.19 490.349 185.134 494.137 191.821 495.317L284.263 511.616C290.949 512.797 297.831 511.273 303.394 507.379C308.956 503.485 312.745 497.541 313.924 490.854L324.267 432.026L366.933 190.217V486.4C366.933 500.539 378.395 512 392.533 512H486.4C500.539 512 512 500.539 512 486.4V25.6C512 11.4615 500.539 0 486.4 0ZM196.753 418.193L305.98 437.453L301.534 462.669L192.307 443.401L196.753 418.193ZM308.967 420.651L199.74 401.382L244.19 149.274L353.417 168.542L308.967 420.651ZM247.143 132.471L251.58 107.255L360.807 126.524L356.361 151.731L247.143 132.471ZM384 93.8667H494.933V418.133H384V93.8667ZM384 76.8V51.2H494.933V76.8H384ZM384 435.2H494.933V460.8H384V435.2ZM392.533 17.0667H486.4C491.113 17.0667 494.933 20.8872 494.933 25.6V34.1333H384V25.6C384 20.8872 387.821 17.0667 392.533 17.0667ZM264.431 74.9995C264.929 74.9958 265.426 75.0387 265.916 75.1275L358.4 91.4261C363.039 92.2452 366.137 96.6683 365.321 101.308L363.836 109.713L254.549 90.4533L256 82.048C256.722 77.9608 260.281 74.986 264.431 74.9995ZM109.781 170.837C111.238 166.356 116.052 163.903 120.533 165.359L209.809 194.372C214.291 195.829 216.744 200.642 215.288 205.124L210.005 221.338L104.516 187.059L109.781 170.837ZM133.564 456.627L28.0577 422.4L99.2428 203.29L204.732 237.594L133.564 456.627ZM122.991 489.165C121.535 493.647 116.721 496.099 112.239 494.643L22.9633 465.63C18.485 464.17 16.0368 459.357 17.4935 454.878L22.7841 438.613L128.29 472.875L122.991 489.165ZM287.232 494.797L194.791 478.498C190.152 477.679 187.054 473.256 187.87 468.617L189.346 460.211L298.573 479.479L297.088 487.876C296.269 492.503 291.863 495.597 287.232 494.797V494.797ZM486.4 494.933H392.533C387.821 494.933 384 491.113 384 486.4V477.867H494.933V486.4C494.933 491.113 491.113 494.933 486.4 494.933Z" fill="#108C90"></path> <path d="M460.8 119.467H418.133C408.707 119.467 401.066 127.108 401.066 136.533V375.467C401.066 384.892 408.707 392.533 418.133 392.533H460.8C470.225 392.533 477.866 384.892 477.866 375.467V136.533C477.866 127.108 470.225 119.467 460.8 119.467ZM418.133 375.467V136.533H460.8V375.467H418.133Z" fill="#108C90"></path> <path d="M122.957 254.199C120.803 253.501 118.46 253.686 116.444 254.715C114.427 255.744 112.902 257.533 112.205 259.686L65.5272 403.464C64.0713 407.946 66.5239 412.76 71.0056 414.216C71.8576 414.492 72.7471 414.633 73.6424 414.635C77.3414 414.633 80.6183 412.249 81.7576 408.73L128.435 264.951C129.891 260.47 127.438 255.656 122.957 254.199V254.199Z" fill="#108C90"></path> <path d="M139.171 333.218C134.689 331.762 129.875 334.215 128.419 338.697L103.416 415.753C101.96 420.234 104.413 425.048 108.894 426.505C109.746 426.78 110.636 426.921 111.531 426.923C115.23 426.921 118.507 424.537 119.646 421.018L144.649 343.97C146.105 339.488 143.652 334.675 139.171 333.218Z" fill="#108C90"></path> <path d="M322.287 197.709L263.458 187.332C258.816 186.512 254.388 189.611 253.568 194.253C252.748 198.895 255.846 203.323 260.489 204.143L319.317 214.519C319.811 214.604 320.31 214.647 320.811 214.647C325.238 214.649 328.931 211.265 329.316 206.855C329.7 202.445 326.648 198.473 322.287 197.709Z" fill="#108C90"></path> <path d="M316.356 231.322L257.536 220.954C254.502 220.348 251.379 221.432 249.372 223.787C247.365 226.141 246.79 229.397 247.868 232.296C248.946 235.196 251.509 237.284 254.566 237.756L313.395 248.132C313.886 248.216 314.382 248.259 314.88 248.26C319.307 248.262 323.001 244.878 323.385 240.468C323.769 236.057 320.717 232.086 316.356 231.322V231.322Z" fill="#108C90"></path> </g> <defs> <clipPath id="clip0_143_3703"> <rect width="512" height="512" fill="white"></rect> </clipPath> </defs> </svg> 