<?xml version="1.0" encoding="UTF-8"?> <svg xmlns="http://www.w3.org/2000/svg" width="512" height="512" viewBox="0 0 512 512" fill="none"> <g clip-path="url(#clip0_128_5072)"> <path d="M307.2 119.581C309.463 119.582 311.634 118.683 313.235 117.082C314.835 115.482 315.734 113.311 315.734 111.047C315.739 106.336 319.556 102.518 324.267 102.514C328.98 102.514 332.8 98.6942 332.8 93.9812C332.8 89.2682 328.98 85.4482 324.267 85.4482C310.135 85.4632 298.682 96.9162 298.667 111.048C298.666 113.311 299.565 115.482 301.166 117.083C302.766 118.682 304.937 119.581 307.2 119.581Z" fill="#7EC752"></path> <path d="M503.592 240.426L483.375 209.805C481.394 206.811 481.497 202.898 483.633 200.013L501.7 175.463C505.34 170.632 506.113 164.221 503.725 158.663C501.338 153.013 496.107 149.075 490.017 148.346L466.3 145.384C462.272 144.804 458.17 145.019 454.225 146.017L394.341 159.576C386.869 161.277 379.488 163.351 372.224 165.793L349.866 173.34V164.934C372.765 154.112 386.361 130.036 383.802 104.838C381.243 79.6402 363.085 58.7893 338.478 52.7913C313.871 46.7933 288.155 56.9513 274.288 78.1452C260.422 99.3392 261.414 126.971 276.765 147.116L221.49 136.867C217.226 136.188 212.862 137.105 209.232 139.442L148.158 179.58C146.708 180.575 145.404 181.766 144.283 183.121L128.558 202.692C122.84 209.842 121.123 219.397 123.993 228.091C126.863 236.785 133.932 243.439 142.783 245.779C143.789 246.042 144.744 246.472 145.608 247.05L148.9 254.717C149.387 255.853 150.114 256.87 151.033 257.696C157.706 263.725 167.044 265.83 175.658 263.246C184.078 260.846 190.647 254.244 193.007 245.812L198.132 230.112C200.375 223.233 205.39 217.605 211.965 214.587L225.09 208.774V224.986C225.115 231.414 228.739 237.286 234.473 240.19L263.106 254.724L214.481 273.22C214.023 273.366 213.714 273.503 213.773 273.52C213.339 273.657 212.918 273.831 212.515 274.041L187.415 286.845C183.893 288.62 179.875 289.161 176.008 288.383L159.108 284.966C146.403 282.413 133.202 284.713 122.108 291.412L94.4247 308.224L48.2328 335.066C37.2768 341.411 32.5818 354.797 37.1748 366.595L40.9248 376.124C41.8598 378.534 41.6528 381.238 40.3628 383.478C39.0728 385.718 36.8368 387.253 34.2828 387.653L21.4498 389.861C14.7228 390.954 8.71384 394.697 4.76685 400.253C0.818857 405.725 -0.77114 412.55 0.349858 419.203L3.67485 439.436C5.68685 451.845 16.4208 460.95 28.9918 460.911H56.3837C64.5157 460.936 72.1707 457.08 76.9917 450.532L93.4747 428.178C95.1097 426.039 97.1957 424.285 99.5827 423.041L117.366 414.02C121.837 411.791 127.048 411.582 131.683 413.445L193.315 438.416C198.557 440.591 204.54 439.993 209.248 436.824C214.033 433.636 216.905 428.265 216.898 422.516V420.466C216.967 417.411 216.123 414.405 214.473 411.833L209.906 403.904L213.073 406.041C222.701 412.548 231.162 420.634 238.098 429.958L245.431 439.937C251.463 448.169 261.824 452.009 271.764 449.695L325.831 437.57C335.739 435.303 343.384 427.415 345.339 417.441L346.964 409.283C348.915 399.533 357.495 392.527 367.439 392.566C371.85 392.579 376.15 393.95 379.756 396.491L423.606 428.22C430.119 432.974 438.303 434.834 446.231 433.362C446.423 433.333 446.606 433.304 446.789 433.266C456.751 431.241 464.948 424.192 468.443 414.646C471.938 405.1 470.23 394.424 463.93 386.446L456.13 376.433L494.672 342.317C505.698 332.6 512.01 318.609 511.997 303.912V268.587C512.018 258.58 509.094 248.787 503.592 240.426ZM324.267 68.3813C347.831 68.3813 366.934 87.4832 366.934 111.048C366.934 134.612 347.832 153.715 324.267 153.715C300.703 153.715 281.6 134.613 281.6 111.048C281.628 87.4942 300.714 68.4083 324.267 68.3813ZM332.8 170.781V273.181C332.8 277.894 328.98 281.714 324.267 281.714C319.554 281.714 315.734 277.894 315.734 273.181V170.781H332.8V170.781ZM494.934 303.914C494.947 313.713 490.738 323.043 483.384 329.518L444.609 363.843C438.041 369.926 437.226 380.027 442.734 387.085L450.542 397.026C453.212 400.312 453.933 404.77 452.434 408.73C451.043 412.621 447.768 415.536 443.742 416.467C443.584 416.488 443.425 416.517 443.259 416.55C439.889 417.23 436.39 416.451 433.626 414.408L389.71 382.629C383.199 378.016 375.423 375.526 367.443 375.5C349.341 375.462 333.745 388.244 330.226 406L328.601 414.158C327.941 417.508 325.377 420.158 322.051 420.929L267.984 433.058C264.672 433.838 261.214 432.569 259.192 429.833L251.817 419.804C243.729 408.919 233.856 399.483 222.617 391.896L219.417 389.734C212.761 385.135 203.781 385.887 197.984 391.53C192.152 396.926 190.944 405.691 195.101 412.463L199.834 420.467L199.801 422.63L138.152 397.651C128.955 393.878 118.571 394.29 109.702 398.78L91.8347 407.838C87.1177 410.268 83.0077 413.729 79.8097 417.963L63.2847 440.363C61.6707 442.557 59.1087 443.851 56.3847 443.846H28.9928C24.7848 443.858 21.1908 440.815 20.5098 436.663L17.1848 416.413C16.8208 414.223 17.3488 411.978 18.6518 410.18C19.9868 408.306 22.0208 407.049 24.2938 406.693L37.1358 404.48C44.7548 403.222 51.3998 398.593 55.2198 391.882C59.0397 385.171 59.6277 377.094 56.8197 369.9L53.0618 360.358C51.5228 356.429 53.0888 351.965 56.7447 349.858L103.137 322.9L130.937 306.021C138.388 301.57 147.22 300.03 155.737 301.696L172.545 305.092C180.155 306.623 188.057 305.58 195.011 302.129L219.953 289.408L220.103 289.34L220.278 289.273L269.278 270.635C275.611 268.195 279.886 262.221 280.153 255.439C280.518 248.735 276.858 242.457 270.845 239.472L242.162 224.985V208.772C242.189 203.012 239.313 197.626 234.513 194.443C229.713 191.26 223.632 190.709 218.337 192.976L204.845 199.076C193.982 204.126 185.688 213.438 181.921 224.809L176.663 240.942C175.902 243.811 173.685 246.066 170.83 246.875C168.438 247.604 165.849 247.269 163.722 245.954L160.489 238.429C160.039 237.376 159.382 236.425 158.556 235.633C155.351 232.58 151.422 230.39 147.139 229.27C143.868 228.444 141.254 225.99 140.222 222.778C139.122 219.557 139.751 215.997 141.889 213.349L157.589 193.799L218.588 153.678L298.671 168.571V273.174C298.671 287.312 310.133 298.774 324.271 298.774C338.409 298.774 349.871 287.312 349.871 273.174V191.34L377.621 181.974C385.263 179.462 391.763 177.637 398.088 176.22L458.238 162.599C460.123 162.111 462.087 162.004 464.013 162.286L487.98 165.315L469.922 189.844C463.534 198.491 463.215 210.203 469.122 219.186L489.347 249.815C493.011 255.387 494.955 261.913 494.939 268.581V303.914H494.934Z" fill="#7EC752"></path> <path d="M23.8007 284.331L17.9587 296.123C15.8717 300.322 17.5697 305.419 21.7587 307.527L34.6337 314.023C39.8607 316.682 46.0927 316.442 51.1007 313.39L86.7177 291.828C90.6047 289.49 93.3977 285.697 94.4757 281.291L102.151 250.316C103.11 246.45 101.266 242.434 97.7087 240.641L83.1837 233.316L77.7917 222.433L84.4417 209.004C86.5277 204.803 84.8297 199.707 80.6417 197.596L66.7247 190.579L61.2497 174C58.9607 166.991 52.4237 162.249 45.0497 162.25H34.1347C24.6937 162.283 17.0597 169.95 17.0677 179.392V231.042C17.0687 233.291 17.9577 235.45 19.5427 237.046L25.6017 243.167V246.263L17.9597 261.688C17.3707 262.865 17.0657 264.164 17.0677 265.48V273.976C17.0677 276.206 17.9417 278.348 19.5007 279.943L23.8007 284.331ZM34.1347 267.476L41.7767 252.047C42.3657 250.872 42.6717 249.574 42.6687 248.259V239.651C42.6677 237.402 41.7787 235.244 40.1937 233.647L34.1347 227.526V179.314L45.0427 179.347L51.6347 199.284C52.3447 201.43 53.8757 203.206 55.8927 204.226L65.3927 209.018L60.6257 218.643C59.4397 221.028 59.4367 223.83 60.6167 226.218L69.1497 243.439C69.9737 245.094 71.3087 246.438 72.9577 247.272L83.9407 252.814L77.8817 277.227L42.3157 298.79L37.0077 296.111L41.7747 286.482C43.3887 283.234 42.7697 279.32 40.2327 276.728L34.1327 270.495V267.476H34.1347Z" fill="#7EC752"></path> </g> <defs> <clipPath id="clip0_128_5072"> <rect width="512" height="512" fill="white"></rect> </clipPath> </defs> </svg> 