<?xml version="1.0" encoding="UTF-8"?> <svg xmlns="http://www.w3.org/2000/svg" width="512" height="512" viewBox="0 0 512 512" fill="none"> <g clip-path="url(#clip0_128_5098)"> <path d="M373.399 56.93C371.54 55.07 368.96 54 366.33 54C363.689 54 361.12 55.07 359.26 56.93C357.39 58.79 356.33 61.37 356.33 64C356.33 66.63 357.39 69.21 359.26 71.07C361.12 72.93 363.689 74 366.33 74C368.96 74 371.54 72.93 373.399 71.07C375.259 69.21 376.33 66.63 376.33 64C376.33 61.37 375.26 58.79 373.399 56.93Z" fill="#7EC752"></path> <path d="M348.369 102H284.369C278.847 102 274.369 106.477 274.369 112V176C274.369 181.523 278.847 186 284.369 186H348.369C353.891 186 358.369 181.523 358.369 176V112C358.369 106.477 353.891 102 348.369 102ZM338.369 166H294.369V122H338.369V166Z" fill="#7EC752"></path> <path d="M348.369 214H284.369C278.847 214 274.369 218.477 274.369 224V288C274.369 293.523 278.847 298 284.369 298H348.369C353.892 298 358.369 293.523 358.369 288V224C358.369 218.477 353.891 214 348.369 214ZM338.369 278H294.369V234H338.369V278Z" fill="#7EC752"></path> <path d="M316.369 326H284.369C278.847 326 274.369 330.477 274.369 336V400C274.369 405.523 278.847 410 284.369 410C289.891 410 294.369 405.523 294.369 400V346H316.369C321.891 346 326.369 341.523 326.369 336C326.369 330.477 321.891 326 316.369 326Z" fill="#7EC752"></path> <path d="M236.333 102C230.811 102 226.333 106.477 226.333 112V166H172.333C166.811 166 162.333 170.477 162.333 176C162.333 181.523 166.811 186 172.333 186H236.333C241.855 186 246.333 181.523 246.333 176V112C246.333 106.477 241.855 102 236.333 102Z" fill="#7EC752"></path> <path d="M236.333 214H172.333C166.811 214 162.333 218.477 162.333 224V288C162.333 293.523 166.811 298 172.333 298H236.333C241.855 298 246.333 293.523 246.333 288V224C246.333 218.477 241.855 214 236.333 214ZM226.333 278H182.333V234H226.333V278Z" fill="#7EC752"></path> <path d="M236.333 326H172.333C166.811 326 162.333 330.477 162.333 336V400C162.333 405.523 166.811 410 172.333 410H236.333C241.855 410 246.333 405.523 246.333 400V336C246.333 330.477 241.855 326 236.333 326ZM226.333 390H182.333V346H226.333V390Z" fill="#7EC752"></path> <path d="M262.799 469.2C260.939 467.33 258.359 466.27 255.729 466.27C253.099 466.27 250.52 467.33 248.66 469.2C246.8 471.06 245.729 473.63 245.729 476.27C245.729 478.9 246.799 481.47 248.66 483.34C250.519 485.2 253.099 486.27 255.729 486.27C258.359 486.27 260.939 485.2 262.799 483.34C264.659 481.47 265.729 478.9 265.729 476.27C265.729 473.63 264.66 471.06 262.799 469.2Z" fill="#7EC752"></path> <path d="M391.994 0H120.006C103.464 0 90.006 13.458 90.006 30V33.987H30C13.458 33.987 0 47.445 0 63.987V155.987C0 172.529 13.458 185.987 30 185.987H122C138.542 185.987 152 172.529 152 155.987V74H320C325.522 74 330 69.523 330 64C330 58.477 325.522 54 320 54H150.284C146.16 42.354 135.041 33.987 122 33.987H110.006V30C110.006 24.486 114.492 20 120.006 20H391.994C397.508 20 401.994 24.486 401.994 30V256C401.994 261.523 406.472 266 411.994 266C417.516 266 421.994 261.523 421.994 256V30C421.994 13.458 408.536 0 391.994 0ZM132 155.987C132 161.501 127.514 165.987 122 165.987H30C24.486 165.987 20 161.501 20 155.987V152.354C20.555 151.988 21.082 151.56 21.571 151.071L53.25 119.392L75.429 141.571C79.335 145.476 85.665 145.476 89.572 141.571L132 99.143V155.987ZM122 53.987C127.514 53.987 132 58.473 132 63.987V70.858L82.5 120.358L60.321 98.179C56.415 94.274 50.085 94.274 46.178 98.179L20 124.357V63.987C20 58.473 24.486 53.987 30 53.987H122Z" fill="#7EC752"></path> <path d="M482 290H374C357.458 290 344 303.458 344 320V428C344 444.542 357.458 458 374 458H401.994V482C401.994 487.514 397.508 492 391.994 492H120.006C114.492 492 110.006 487.514 110.006 482V458H321.349C326.871 458 331.349 453.523 331.349 448C331.349 442.477 326.871 438 321.349 438H110.006V224C110.006 218.477 105.528 214 100.006 214C94.4839 214 90.0059 218.477 90.0059 224V482C90.0059 498.542 103.464 512 120.006 512H391.994C408.536 512 421.994 498.542 421.994 482V458H482C498.542 458 512 444.542 512 428V320C512 303.458 498.542 290 482 290ZM492 428C492 433.514 487.514 438 482 438H374C368.486 438 364 433.514 364 428V320C364 314.486 368.486 310 374 310H482C487.514 310 492 314.486 492 320V428Z" fill="#7EC752"></path> <path d="M458.063 102C452.541 102 448.063 106.477 448.063 112V191.647C448.063 197.17 452.54 201.647 458.063 201.647C463.585 201.647 468.063 197.17 468.063 191.647V112C468.063 106.477 463.585 102 458.063 102Z" fill="#7EC752"></path> <path d="M465.13 222.64C463.27 220.78 460.69 219.71 458.06 219.71C455.43 219.71 452.85 220.78 450.991 222.64C449.131 224.5 448.06 227.08 448.06 229.71C448.06 232.34 449.13 234.92 450.991 236.78C452.85 238.64 455.43 239.71 458.06 239.71C460.69 239.71 463.27 238.64 465.13 236.78C467 234.92 468.06 232.34 468.06 229.71C468.06 227.08 467 224.5 465.13 222.64Z" fill="#7EC752"></path> <path d="M54 230.982C48.478 230.982 44 235.459 44 240.982V309.848C44 315.371 48.478 319.848 54 319.848C59.522 319.848 64 315.371 64 309.848V240.982C64 235.459 59.522 230.982 54 230.982Z" fill="#7EC752"></path> <path d="M459.181 355.173L424.077 334.925C417.269 330.999 409.143 331.002 402.34 334.932C395.536 338.863 391.474 345.9 391.474 353.758V394.24C391.474 402.096 395.536 409.134 402.338 413.065C405.743 415.032 409.479 416.016 413.215 416.016C416.944 416.016 420.673 415.036 424.072 413.076L459.176 392.841C465.99 388.913 470.059 381.872 470.06 374.007C470.061 366.143 465.993 359.102 459.181 355.173ZM449.188 375.515L414.084 395.75C413.507 396.082 412.921 396.081 412.344 395.749C411.767 395.415 411.474 394.908 411.474 394.241V353.759C411.474 353.092 411.767 352.585 412.344 352.251C412.633 352.084 412.924 352.001 413.215 352.001C413.506 352.001 413.796 352.084 414.085 352.251L449.189 372.499C449.767 372.832 450.06 373.34 450.06 374.007C450.06 374.673 449.767 375.181 449.188 375.515Z" fill="#7EC752"></path> </g> <defs> <clipPath id="clip0_128_5098"> <rect width="512" height="512" fill="white"></rect> </clipPath> </defs> </svg> 