<?xml version="1.0" encoding="UTF-8"?> <svg xmlns="http://www.w3.org/2000/svg" width="116" height="116" viewBox="0 0 116 116" fill="none"> <g clip-path="url(#clip0_170_136)"> <path d="M99.8005 84.9979C97.3667 82.773 95.9707 79.6184 95.9707 76.343V53.9593C95.9707 52.7178 94.9642 51.711 93.7224 51.711C92.4807 51.711 91.4741 52.7178 91.4741 53.9593V76.343C91.4741 80.8779 93.4032 85.2421 96.7666 88.3169C97.9756 89.4219 98.6687 90.9942 98.6687 92.6309C98.6687 95.8539 96.0465 98.4761 92.8235 98.4761H22.6755C19.4526 98.4761 16.8304 95.8539 16.8304 92.6309C16.8304 90.9944 17.5235 89.4221 18.7324 88.3169C22.0959 85.2421 24.025 80.8779 24.025 76.343V50.362C24.025 31.7662 39.1539 16.6373 57.7496 16.6373C62.8641 16.6373 67.9017 17.8003 72.464 20.0125C70.8782 22.5598 69.9587 25.5631 69.9587 28.7782C69.9587 37.9522 77.4222 45.4157 86.5962 45.4157C95.7702 45.4157 103.234 37.9522 103.234 28.7782C103.234 19.6042 95.7702 12.1407 86.5962 12.1407C82.2967 12.1407 78.3727 13.7801 75.4169 16.4666C72.0656 14.7186 68.4703 13.4825 64.7576 12.792C65.5859 11.4992 66.0684 9.96452 66.0684 8.31853C66.0684 3.73175 62.3367 0 57.7496 0C53.1626 0 49.4309 3.73175 49.4309 8.31853C49.4309 9.96272 49.9123 11.4956 50.7387 12.7877C33.0004 16.0894 19.5283 31.681 19.5283 50.362V76.343C19.5283 79.6184 18.1326 82.773 15.6986 84.9979C13.5602 86.9526 12.3337 89.7346 12.3337 92.6307C12.3337 98.3331 16.9731 102.972 22.6755 102.972H43.5372C44.62 109.842 50.5802 115.113 57.7496 115.113C64.9191 115.113 70.8793 109.842 71.9621 102.972H92.8238C98.5262 102.972 103.166 98.3331 103.166 92.6307C103.166 89.7346 101.939 86.9526 99.8005 84.9979ZM86.5959 16.6373C93.2905 16.6373 98.7368 22.0838 98.7368 28.7782C98.7368 35.4725 93.2905 40.9191 86.5959 40.9191C79.9014 40.9191 74.4551 35.4725 74.4551 28.7782C74.4551 22.0838 79.9014 16.6373 86.5959 16.6373ZM57.7496 4.4964C59.8572 4.4964 61.5718 6.21096 61.5718 8.31831C61.5718 10.4259 59.8572 12.1404 57.7496 12.1404C55.6421 12.1404 53.9275 10.4259 53.9275 8.31831C53.9275 6.21096 55.6421 4.4964 57.7496 4.4964ZM57.7496 110.617C53.0684 110.617 49.1391 107.347 48.1179 102.972H67.3814C66.3602 107.347 62.4309 110.617 57.7496 110.617Z" fill="#009688"></path> <path d="M32.5686 48.0671C31.3269 48.0671 30.3203 49.0739 30.3203 50.3155V50.3622C30.3203 51.6037 31.3269 52.6105 32.5686 52.6105C33.8104 52.6105 34.8169 51.6037 34.8169 50.3622V50.3155C34.8169 49.0739 33.8104 48.0671 32.5686 48.0671Z" fill="#009688"></path> <path d="M57.7497 22.9326C46.717 22.9326 36.8022 29.495 32.4908 39.6515C32.0057 40.7943 32.539 42.1143 33.6818 42.5995C33.9684 42.7211 34.2663 42.7789 34.5593 42.7789C35.4343 42.7789 36.2664 42.2647 36.63 41.4086C40.2349 32.9165 48.5249 27.4292 57.7497 27.4292C58.9915 27.4292 59.998 26.4224 59.998 25.1809C59.998 23.9394 58.9915 22.9326 57.7497 22.9326Z" fill="#009688"></path> <path d="M87.3887 21.4923C86.549 21.1452 85.5817 21.3368 84.9385 21.9798L82.3529 24.5653C81.475 25.4433 81.475 26.8669 82.3529 27.7451C82.8777 28.2697 83.5978 28.4814 84.28 28.3783V32.4504C84.28 33.6919 85.2865 34.6987 86.5283 34.6987C87.77 34.6987 88.7766 33.6919 88.7766 32.4504V23.5696C88.7766 22.6601 88.2287 21.8404 87.3887 21.4923Z" fill="#009688"></path> </g> <defs> <clipPath id="clip0_170_136"> <rect width="115.114" height="115.114" fill="white" transform="translate(0.227051)"></rect> </clipPath> </defs> </svg> 