<?xml version="1.0" encoding="UTF-8"?> <svg xmlns="http://www.w3.org/2000/svg" width="116" height="116" viewBox="0 0 116 116" fill="none"> <path d="M113.656 59.3555C113.656 47.3243 105.17 37.2501 93.8704 34.7716V10.792C93.8704 5.83308 89.836 1.79871 84.8772 1.79871H38.1123C33.1534 1.79871 29.119 5.83308 29.119 10.792V30.5771H18.721L17.6364 34.9226L13.7981 32.6186L4.17895 42.2324L6.48302 46.0743L2.13928 47.1589V60.7602L6.48482 61.8448L4.17895 65.6867L13.7963 75.3023L17.6346 72.9983L18.721 77.342H29.119V104.322C29.119 109.281 33.1534 113.315 38.1123 113.315H84.8772C89.836 113.315 93.8704 109.281 93.8704 104.322V83.9394C105.17 81.4609 113.656 71.3867 113.656 59.3555ZM110.058 59.3555C110.058 62.8611 109.2 66.1634 107.711 69.0934C106.713 66.3469 104.416 64.1867 101.448 63.4438L93.8704 61.5481V61.1182C96.1115 59.4292 97.4677 56.7726 97.4677 53.9613V50.364C97.4677 47.8513 96.4047 45.4339 94.5503 43.7324C92.6977 42.0363 90.1868 41.1837 87.6759 41.405C83.0803 41.8025 79.4812 45.9034 79.4812 50.7346V53.9595C79.4812 56.7708 80.8374 59.4274 83.0785 61.1164V61.5463L75.5008 63.442C72.533 64.1849 70.2362 66.345 69.2379 69.0916C67.7486 66.1634 66.8907 62.8611 66.8907 59.3555C66.8907 47.4538 76.5728 37.7717 88.4745 37.7717C100.376 37.7717 110.058 47.4538 110.058 59.3555ZM83.0785 34.7716C81.8411 35.0432 80.6432 35.4173 79.4812 35.8633V30.5771H43.5082V55.7582H63.5812C63.4103 56.9363 63.2934 58.1306 63.2934 59.3555C63.2934 71.3867 71.7794 81.4609 83.0785 83.9394V88.1339H39.9109V26.9798H83.0785V34.7716ZM64.3546 52.1609H47.1055V34.1744H75.8839V37.581C70.3908 40.77 66.2072 45.961 64.3546 52.1609ZM38.1123 5.39601H84.8772C87.8521 5.39601 90.2731 7.81699 90.2731 10.792V16.1879H32.7163V10.792C32.7163 7.81699 35.1373 5.39601 38.1123 5.39601V5.39601ZM29.119 62.183C27.9841 62.683 26.7592 62.9528 25.5217 62.9528C20.5629 62.9528 16.5285 58.9184 16.5285 53.9595C16.5285 49.0007 20.5629 44.9663 25.5217 44.9663C26.7592 44.9663 27.9841 45.2361 29.119 45.7361V62.183ZM21.5305 73.7447L20.6546 70.2391L20.2895 69.2768L18.2354 68.4423L14.3539 70.7733L8.70975 65.1274L11.0408 61.2441L10.1415 59.0497L5.73658 57.9508V49.9683L10.1361 48.8694L11.0408 46.675L8.70975 42.7917L14.3539 37.1458L18.2354 39.4768L20.4298 38.5847L21.5305 34.1744H29.119V41.9176C27.9517 41.5669 26.743 41.369 25.5217 41.369C18.5789 41.369 12.9312 47.0186 12.9312 53.9595C12.9312 60.9005 18.5789 66.5501 25.5217 66.5501C26.743 66.5501 27.9517 66.3522 29.119 66.0015V73.7447H21.5305ZM84.8772 109.718H38.1123C35.1373 109.718 32.7163 107.297 32.7163 104.322V98.9258H90.2731V104.322C90.2731 107.297 87.8521 109.718 84.8772 109.718ZM90.2731 95.3285H32.7163V19.7852H90.2731V34.2661C89.676 34.223 89.0824 34.1744 88.4745 34.1744C87.8665 34.1744 87.273 34.223 86.6758 34.2661V23.3825H36.3136V91.7312H86.6758V84.4449C87.273 84.488 87.8665 84.5366 88.4745 84.5366C89.0824 84.5366 89.676 84.488 90.2731 84.4449V95.3285ZM88.4745 80.9393C82.0263 80.9393 76.2455 78.0812 72.2866 73.5846V72.1673C72.2866 69.6869 73.9684 67.534 76.3732 66.9314L86.6758 64.3575V59.1217L85.7819 58.6019C84.0894 57.6162 83.0785 55.8805 83.0785 53.9595V50.7346C83.0785 47.7506 85.2351 45.2271 87.987 44.9879C89.5303 44.8638 90.9926 45.3494 92.1203 46.3836C93.2319 47.4035 93.8704 48.8532 93.8704 50.3623V53.9595C93.8704 55.8805 92.8596 57.6162 91.1671 58.6019L90.2731 59.1217V64.3575L100.576 66.9314C102.981 67.534 104.662 69.6869 104.662 72.1673V73.5846C100.703 78.0812 94.9226 80.9393 88.4745 80.9393Z" fill="#009688"></path> <path d="M68.6893 8.99341H72.2866V12.5907H68.6893V8.99341Z" fill="#009688"></path> <path d="M50.7028 8.99341H65.092V12.5907H50.7028V8.99341Z" fill="#009688"></path> <path d="M54.3001 102.523H68.6893V106.12H54.3001V102.523Z" fill="#009688"></path> <path d="M79.4812 102.523H83.0785V106.12H79.4812V102.523Z" fill="#009688"></path> <path d="M39.9109 102.523H43.5082V106.12H39.9109V102.523Z" fill="#009688"></path> <path d="M43.5082 59.3555H59.696V62.9528H43.5082V59.3555Z" fill="#009688"></path> <path d="M43.5082 66.55H59.696V70.1473H43.5082V66.55Z" fill="#009688"></path> <path d="M43.5082 73.7446H59.696V77.3419H43.5082V73.7446Z" fill="#009688"></path> <path d="M43.5082 80.9392H59.696V84.5365H43.5082V80.9392Z" fill="#009688"></path> <path d="M102.864 34.1745C105.839 34.1745 108.26 31.7535 108.26 28.7786C108.26 26.4367 106.751 24.4582 104.662 23.7136V8.99341H101.065V23.7136C98.9768 24.4582 97.4677 26.4367 97.4677 28.7786C97.4677 31.7535 99.8887 34.1745 102.864 34.1745ZM102.864 26.9799C103.855 26.9799 104.662 27.7857 104.662 28.7786C104.662 29.7714 103.855 30.5772 102.864 30.5772C101.873 30.5772 101.065 29.7714 101.065 28.7786C101.065 27.7857 101.873 26.9799 102.864 26.9799Z" fill="#009688"></path> <path d="M101.065 1.79871H104.662V5.39601H101.065V1.79871Z" fill="#009688"></path> <path d="M20.1257 80.9392C17.1508 80.9392 14.7298 83.3602 14.7298 86.3352C14.7298 88.677 16.2389 90.6555 18.3271 91.4002V106.12H21.9244V91.4002C24.0126 90.6555 25.5217 88.677 25.5217 86.3352C25.5217 83.3602 23.1007 80.9392 20.1257 80.9392ZM20.1257 88.1338C19.1347 88.1338 18.3271 87.328 18.3271 86.3352C18.3271 85.3423 19.1347 84.5365 20.1257 84.5365C21.1168 84.5365 21.9244 85.3423 21.9244 86.3352C21.9244 87.328 21.1168 88.1338 20.1257 88.1338Z" fill="#009688"></path> <path d="M18.3271 109.718H21.9244V113.315H18.3271V109.718Z" fill="#009688"></path> </svg> 