<?xml version="1.0" encoding="UTF-8"?> <svg xmlns="http://www.w3.org/2000/svg" width="512" height="512" viewBox="0 0 512 512" fill="none"> <g clip-path="url(#clip0_153_4903)"> <path d="M437.02 74.98C388.667 26.629 324.38 0 256 0C187.62 0 123.333 26.629 74.98 74.98C26.629 123.333 0 187.62 0 256C0 324.38 26.629 388.667 74.98 437.02C123.333 485.371 187.62 512 256 512C324.38 512 388.667 485.371 437.02 437.02C485.371 388.667 512 324.38 512 256C512 187.62 485.371 123.333 437.02 74.98ZM138.22 324C134.078 316.826 124.905 314.368 117.73 318.51L105.452 325.599C97.481 308.458 92.448 289.998 90.702 271H105C113.284 271 120 264.284 120 256C120 247.716 113.284 241 105 241H90.685C92.428 221.638 97.506 203.225 105.345 186.34L117.73 193.49C120.092 194.854 122.671 195.502 125.216 195.502C130.4 195.502 135.442 192.812 138.22 188C142.362 180.826 139.904 171.652 132.73 167.51L120.381 160.38C131.339 144.883 144.883 131.34 160.38 120.381L167.51 132.73C170.288 137.543 175.33 140.232 180.514 140.232C183.058 140.232 185.638 139.584 188 138.22C195.174 134.078 197.632 124.904 193.49 117.73L186.34 105.345C203.225 97.506 221.638 92.428 241 90.685V105C241 113.284 247.716 120 256 120C264.284 120 271 113.284 271 105V90.685C290.362 92.428 308.775 97.506 325.66 105.345L318.51 117.73C314.368 124.904 316.826 134.078 324 138.22C326.362 139.584 328.941 140.232 331.486 140.232C336.67 140.232 341.712 137.542 344.49 132.73L351.62 120.381C367.117 131.339 380.66 144.883 391.619 160.38L379.27 167.51C372.096 171.652 369.638 180.826 373.78 188C376.558 192.813 381.6 195.502 386.784 195.502C389.328 195.502 391.908 194.854 394.27 193.49L406.655 186.34C414.494 203.225 419.572 221.638 421.315 241H407C398.716 241 392 247.716 392 256C392 264.284 398.716 271 407 271H421.298C419.553 289.998 414.519 308.458 406.548 325.599L394.27 318.51C387.096 314.366 377.922 316.826 373.78 324C369.638 331.174 372.096 340.348 379.27 344.49L391.503 351.553C387.028 357.882 382.099 363.923 376.735 369.62C344.786 339.33 301.866 321.334 256.001 321.334C210.136 321.334 167.215 339.33 135.267 369.62C129.902 363.923 124.974 357.882 120.499 351.553L132.732 344.49C139.904 340.348 142.362 331.174 138.22 324ZM122.781 438.441C145.864 385.923 198.106 351.334 256 351.334C313.894 351.334 366.135 385.923 389.219 438.441C351.836 465.812 305.777 482 256 482C206.223 482 160.164 465.812 122.781 438.441ZM412.956 418.441C408.294 409.127 402.851 400.331 396.727 392.119C432.008 355.653 452 306.809 452 256C452 147.925 364.075 60 256 60C147.925 60 60 147.925 60 256C60 306.809 79.992 355.653 115.273 392.119C109.149 400.331 103.706 409.127 99.044 418.441C56.5 377.32 30 319.7 30 256C30 131.383 131.383 30 256 30C380.617 30 482 131.383 482 256C482 319.7 455.5 377.32 412.956 418.441Z" fill="#534E4D"></path> <path d="M258.315 301.982C261.478 301.982 264.666 301.671 267.836 301.038C283.718 297.861 296.882 287.023 303.05 272.046L333.51 198.071C335.816 192.471 334.529 186.035 330.246 181.753C325.965 177.471 319.529 176.184 313.928 178.489L239.954 208.949C224.977 215.116 214.139 228.28 210.962 244.162C207.785 260.045 212.727 276.365 224.18 287.818C233.347 296.987 245.632 301.982 258.315 301.982ZM240.38 250.047C241.603 243.933 245.611 239.064 251.377 236.69L292.063 219.937L275.31 260.623C272.936 266.389 268.067 270.397 261.953 271.62C255.843 272.844 249.804 271.016 245.394 266.606C240.984 262.197 239.157 256.162 240.38 250.047Z" fill="#534E4D"></path> </g> <defs> <clipPath id="clip0_153_4903"> <rect width="512" height="512" fill="white"></rect> </clipPath> </defs> </svg> 