<?xml version="1.0" encoding="UTF-8"?> <svg xmlns="http://www.w3.org/2000/svg" width="512" height="512" viewBox="0 0 512 512" fill="none"> <g clip-path="url(#clip0_153_4891)"> <path d="M160.001 32H138.668V53.333H160.001V32Z" fill="#534E4D"></path> <path d="M202.665 32H181.332V53.333H202.665V32Z" fill="#534E4D"></path> <path d="M508.877 205.794C504.712 201.628 497.958 201.627 493.792 205.792L416 283.584V32C416 14.327 401.673 0 384 0H128C110.327 0 96 14.327 96 32V117.333H32C14.327 117.333 0 131.66 0 149.333V213.333C0 231.006 14.327 245.333 32 245.333H96V320H32C14.327 320 0 334.327 0 352C0 369.673 14.327 384 32 384H96V416C96 433.673 110.327 448 128 448H251.584L205.792 493.792C203.793 495.792 202.67 498.503 202.669 501.331C202.668 507.222 207.442 511.999 213.333 512H501.333C507.224 512 512 507.224 512 501.333V213.333C511.999 210.506 510.876 207.794 508.877 205.794ZM128 21.333H384C389.891 21.333 394.667 26.109 394.667 32V64H117.333V32C117.333 26.109 122.109 21.333 128 21.333ZM21.333 213.333V149.333C21.333 143.442 26.109 138.666 32 138.666H181.333C187.224 138.666 192 143.442 192 149.333V213.333C192 219.224 187.224 224 181.333 224H149.333C143.442 224 138.666 228.776 138.666 234.667V251.584L114.207 227.125C112.207 225.125 109.494 224 106.666 224H32C26.109 224 21.333 219.224 21.333 213.333ZM266.667 341.333V362.666H74.667V341.333H266.667ZM21.333 352C21.333 346.109 26.109 341.333 32 341.333H53.333V362.666H32C26.109 362.667 21.333 357.891 21.333 352ZM128 426.667C122.109 426.667 117.333 421.891 117.333 416V384H277.333C279.038 384 280.644 383.59 282.073 382.878L282.101 382.933L324.768 361.6C326.842 360.566 328.523 358.885 329.557 356.811C332.185 351.539 330.041 345.134 324.768 342.506L282.828 321.536C281.222 320.567 279.346 319.999 277.333 319.999H117.333V260.415L141.792 284.874C143.792 286.874 146.505 287.999 149.333 287.999C155.224 287.999 160 283.223 160 277.332V245.332H181.333C199.006 245.332 213.333 231.005 213.333 213.332V149.332C213.333 131.659 199.006 117.332 181.333 117.332H117.333V85.332H394.666V304.916L272.917 426.667H128ZM490.667 490.667H469.334V480H448V490.667H426.667V480H405.334V490.667H384V480H362.667V490.667H341.334V480H320V490.667H298.667V480H277.334V490.667H239.083L490.667 239.083V490.667Z" fill="#534E4D"></path> <path d="M320 469.333H458.667C464.558 469.333 469.334 464.557 469.334 458.666V320C469.333 317.172 468.21 314.461 466.211 312.461C462.046 308.295 455.292 308.294 451.126 312.459L312.459 451.125C310.46 453.125 309.337 455.836 309.336 458.664C309.334 464.555 314.109 469.332 320 469.333ZM448 345.749V448H345.749L448 345.749Z" fill="#534E4D"></path> <path d="M64.001 170.667H42.668V192H64.001V170.667Z" fill="#534E4D"></path> <path d="M170.665 170.667H85.332V192H170.665V170.667Z" fill="#534E4D"></path> <path d="M362.667 128H234.667V149.333H352V277.333H202.667V266.666H181.334V288C181.334 293.891 186.11 298.667 192.001 298.667H362.668C368.559 298.667 373.335 293.891 373.335 288V138.667C373.333 132.776 368.558 128 362.667 128Z" fill="#534E4D"></path> <path d="M330.665 234.667H309.332V256H330.665V234.667Z" fill="#534E4D"></path> <path d="M288.001 234.667H266.668V256H288.001V234.667Z" fill="#534E4D"></path> <path d="M330.665 192H309.332V213.333H330.665V192Z" fill="#534E4D"></path> </g> <defs> <clipPath id="clip0_153_4891"> <rect width="512" height="512" fill="white"></rect> </clipPath> </defs> </svg> 