<?xml version="1.0" encoding="UTF-8"?> <svg xmlns="http://www.w3.org/2000/svg" width="512" height="512" viewBox="0 0 512 512" fill="none"> <path d="M80 400C73.671 400 67.4841 401.877 62.2218 405.393C56.9594 408.909 52.8579 413.907 50.4359 419.754C48.0139 425.601 47.3802 432.035 48.6149 438.243C49.8496 444.45 52.8973 450.152 57.3726 454.627C61.8479 459.103 67.5497 462.15 73.7571 463.385C79.9645 464.62 86.3987 463.986 92.2459 461.564C98.0931 459.142 103.091 455.041 106.607 449.778C110.123 444.516 112 438.329 112 432C112 423.513 108.629 415.374 102.627 409.373C96.6263 403.371 88.4869 400 80 400ZM80 448C76.8355 448 73.7421 447.062 71.1109 445.304C68.4797 443.545 66.4289 441.047 65.2179 438.123C64.0069 435.199 63.6901 431.982 64.3074 428.879C64.9248 425.775 66.4487 422.924 68.6863 420.686C70.9239 418.449 73.7749 416.925 76.8786 416.307C79.9823 415.69 83.1993 416.007 86.1229 417.218C89.0466 418.429 91.5454 420.48 93.3035 423.111C95.0616 425.742 96 428.835 96 432C96 436.243 94.3143 440.313 91.3137 443.314C88.3131 446.314 84.2435 448 80 448Z" fill="#108C90"></path> <path d="M479.752 296C486.526 291.015 491.551 284.015 494.108 276.003C496.665 267.99 496.622 259.374 493.987 251.386C491.352 243.399 486.259 236.449 479.437 231.53C472.614 226.611 464.411 223.976 456 224H321.064L329.192 158.944C330.177 151.063 329.474 143.063 327.13 135.474C324.786 127.885 320.855 120.882 315.598 114.929C310.34 108.976 303.876 104.21 296.635 100.946C289.395 97.6826 281.542 95.9966 273.6 96H270.104C264.254 95.9997 258.605 98.1361 254.22 102.008C249.834 105.879 247.013 111.219 246.288 117.024L242.544 146.912C239.857 168.18 229.511 187.739 213.442 201.929C197.374 216.118 176.685 223.965 155.248 224H144V200C144 197.878 143.157 195.843 141.657 194.343C140.157 192.843 138.122 192 136 192H24C21.8783 192 19.8434 192.843 18.3431 194.343C16.8429 195.843 16 197.878 16 200V488C16 490.122 16.8429 492.157 18.3431 493.657C19.8434 495.157 21.8783 496 24 496H136C138.122 496 140.157 495.157 141.657 493.657C143.157 492.157 144 490.122 144 488V466.792C144.216 466.792 144.424 466.904 144.64 466.92C150.196 467.305 155.549 469.161 160.152 472.296C182.743 487.768 209.491 496.032 236.872 496H416C426.605 495.987 436.772 491.769 444.27 484.27C451.769 476.772 455.987 466.605 456 456C455.965 446.996 452.861 438.274 447.2 431.272C454.196 430.033 460.731 426.941 466.126 422.319C471.521 417.696 475.578 411.711 477.874 404.988C480.17 398.265 480.622 391.049 479.182 384.092C477.743 377.135 474.464 370.692 469.688 365.432C476.475 362.998 482.472 358.763 487.035 353.18C491.598 347.597 494.555 340.877 495.59 333.741C496.624 326.605 495.696 319.322 492.906 312.673C490.116 306.025 485.569 300.261 479.752 296ZM480 264C480 270.365 477.471 276.47 472.971 280.971C468.47 285.471 462.365 288 456 288H392C385.635 288 379.53 285.471 375.029 280.971C370.529 276.47 368 270.365 368 264C368 257.635 370.529 251.53 375.029 247.029C379.53 242.529 385.635 240 392 240H456C462.365 240 468.47 242.529 472.971 247.029C477.471 251.53 480 257.635 480 264ZM128 480H32V208H128V480ZM169.176 459.08C162.51 454.554 154.801 451.801 146.776 451.08L144 450.16V240H155.248C180.588 239.966 205.047 230.696 224.043 213.926C243.04 197.156 255.272 174.036 258.448 148.896L262.184 119.008C262.426 117.072 263.367 115.291 264.83 114.001C266.293 112.71 268.177 111.999 270.128 112H273.6C279.272 111.999 284.879 113.205 290.05 115.537C295.22 117.869 299.836 121.274 303.59 125.526C307.344 129.778 310.151 134.779 311.824 140.199C313.498 145.618 313.999 151.332 313.296 156.96L304.08 230.848L297.68 266.048C295.328 278.945 288.525 290.609 278.457 299.006C268.389 307.403 255.694 312.001 242.584 312H232C229.878 312 227.843 312.843 226.343 314.343C224.843 315.843 224 317.878 224 320C224 322.122 224.843 324.157 226.343 325.657C227.843 327.157 229.878 328 232 328H242.584C259.446 328 275.773 322.083 288.719 311.279C301.664 300.475 310.408 285.47 313.424 268.88L318.672 240H360.208C356.986 244.175 354.633 248.953 353.288 254.052C351.944 259.152 351.636 264.469 352.382 269.689C353.127 274.91 354.912 279.928 357.631 284.447C360.349 288.966 363.946 292.895 368.208 296C363.718 299.27 359.968 303.451 357.202 308.269C354.437 313.086 352.718 318.433 352.159 323.96C351.6 329.486 352.212 335.069 353.956 340.343C355.7 345.617 358.536 350.464 362.28 354.568C356.318 356.684 350.951 360.199 346.628 364.819C342.306 369.438 339.155 375.027 337.439 381.117C335.724 387.206 335.494 393.618 336.769 399.814C338.045 406.011 340.787 411.811 344.768 416.728C335.58 418.417 327.272 423.269 321.287 430.442C315.302 437.616 312.016 446.658 312 456C312.029 464.684 314.914 473.117 320.208 480H236.872C212.711 480.031 189.107 472.737 169.176 459.08V459.08ZM416 480H352C345.635 480 339.53 477.471 335.029 472.971C330.529 468.47 328 462.365 328 456C328 449.635 330.529 443.53 335.029 439.029C339.53 434.529 345.635 432 352 432H416C422.365 432 428.47 434.529 432.971 439.029C437.471 443.53 440 449.635 440 456C440 462.365 437.471 468.47 432.971 472.971C428.47 477.471 422.365 480 416 480ZM440 416H376C369.635 416 363.53 413.471 359.029 408.971C354.529 404.47 352 398.365 352 392C352 385.635 354.529 379.53 359.029 375.029C363.53 370.529 369.635 368 376 368H440C446.365 368 452.47 370.529 456.971 375.029C461.471 379.53 464 385.635 464 392C464 398.365 461.471 404.47 456.971 408.971C452.47 413.471 446.365 416 440 416ZM456 352H392C385.635 352 379.53 349.471 375.029 344.971C370.529 340.47 368 334.365 368 328C368 321.635 370.529 315.53 375.029 311.029C379.53 306.529 385.635 304 392 304H456C462.365 304 468.47 306.529 472.971 311.029C477.471 315.53 480 321.635 480 328C480 334.365 477.471 340.47 472.971 344.971C468.47 349.471 462.365 352 456 352Z" fill="#108C90"></path> <path d="M280 80C282.122 80 284.157 79.1571 285.657 77.6569C287.157 76.1566 288 74.1217 288 72V24C288 21.8783 287.157 19.8434 285.657 18.3431C284.157 16.8429 282.122 16 280 16C277.878 16 275.843 16.8429 274.343 18.3431C272.843 19.8434 272 21.8783 272 24V72C272 74.1217 272.843 76.1566 274.343 77.6569C275.843 79.1571 277.878 80 280 80Z" fill="#108C90"></path> <path d="M212.12 103.432C212.858 104.196 213.74 104.805 214.716 105.225C215.692 105.644 216.742 105.865 217.804 105.874C218.867 105.883 219.92 105.681 220.903 105.279C221.886 104.876 222.78 104.282 223.531 103.531C224.282 102.78 224.876 101.887 225.278 100.904C225.68 99.9204 225.883 98.867 225.874 97.8047C225.864 96.7425 225.644 95.6927 225.224 94.7167C224.805 93.7407 224.196 92.8579 223.432 92.1199L189.496 58.1759C187.996 56.6748 185.961 55.8311 183.838 55.8303C181.716 55.8296 179.681 56.6719 178.18 58.1719C176.678 59.672 175.835 61.707 175.834 63.8291C175.833 65.9513 176.676 67.9868 178.176 69.4879L212.12 103.432Z" fill="#108C90"></path> <path d="M144 168H192C194.122 168 196.157 167.157 197.657 165.657C199.157 164.157 200 162.122 200 160C200 157.878 199.157 155.843 197.657 154.343C196.157 152.843 194.122 152 192 152H144C141.878 152 139.843 152.843 138.343 154.343C136.843 155.843 136 157.878 136 160C136 162.122 136.843 164.157 138.343 165.657C139.843 167.157 141.878 168 144 168Z" fill="#108C90"></path> <path d="M342.224 105.776C344.345 105.775 346.38 104.932 347.88 103.432L381.824 69.4879C383.324 67.9868 384.166 65.9513 384.166 63.8291C384.165 61.707 383.321 59.672 381.82 58.1719C380.319 56.6719 378.283 55.8296 376.161 55.8303C374.039 55.8311 372.004 56.6748 370.504 58.1759L336.568 92.1199C335.449 93.2388 334.688 94.6641 334.379 96.2157C334.071 97.7673 334.229 99.3756 334.834 100.837C335.44 102.299 336.465 103.548 337.78 104.427C339.095 105.306 340.642 105.776 342.224 105.776V105.776Z" fill="#108C90"></path> <path d="M360 160C360 162.122 360.843 164.157 362.343 165.657C363.843 167.157 365.878 168 368 168H416C418.122 168 420.157 167.157 421.657 165.657C423.157 164.157 424 162.122 424 160C424 157.878 423.157 155.843 421.657 154.343C420.157 152.843 418.122 152 416 152H368C365.878 152 363.843 152.843 362.343 154.343C360.843 155.843 360 157.878 360 160Z" fill="#108C90"></path> </svg> 