<?xml version="1.0" encoding="UTF-8"?> <svg xmlns="http://www.w3.org/2000/svg" width="512" height="512" viewBox="0 0 512 512" fill="none"> <path fill-rule="evenodd" clip-rule="evenodd" d="M162.438 81.3711C162.438 58.7305 144.016 40.3086 121.371 40.3086C98.7305 40.3086 80.3086 58.7305 80.3086 81.3711C80.3086 104.016 98.7305 122.434 121.371 122.434C144.016 122.437 162.438 104.016 162.438 81.3711ZM100.309 81.3711C100.309 69.7578 109.758 60.3086 121.371 60.3086C132.988 60.3086 142.438 69.7578 142.438 81.3711C142.438 92.9844 132.988 102.434 121.371 102.434C109.758 102.437 100.309 92.9844 100.309 81.3711Z" fill="#2683E8"></path> <path fill-rule="evenodd" clip-rule="evenodd" d="M397.363 262.004C371.594 262.004 349.692 268.426 336.453 278.629L300.59 270.645C295.211 269.445 289.86 272.84 288.656 278.23C287.457 283.621 290.852 288.965 296.246 290.164L323.735 296.285C323.223 298.281 322.949 300.336 322.949 302.434C322.949 316.02 334.07 327.629 351.883 334.879L335.871 351.352C332.024 355.313 332.113 361.645 336.074 365.492C338.016 367.383 340.531 368.32 343.043 368.32C345.649 368.32 348.254 367.309 350.215 365.293L373.871 340.953C381.199 342.191 389.078 342.863 397.363 342.863C439.785 342.863 471.778 325.48 471.778 302.434C471.778 279.387 439.785 262.004 397.363 262.004V262.004ZM397.363 322.863C364.653 322.863 342.949 310.566 342.949 302.434C342.949 300.73 343.91 298.848 345.711 296.934C346.02 296.664 346.313 296.379 346.582 296.066C354.047 289.094 372.524 282.004 397.363 282.004C430.074 282.004 451.778 294.301 451.778 302.434C451.778 310.566 430.074 322.863 397.363 322.863Z" fill="#2683E8"></path> <path fill-rule="evenodd" clip-rule="evenodd" d="M278.449 439.129L294.461 422.652C298.309 418.691 298.219 412.363 294.258 408.512C290.301 404.664 283.969 404.754 280.117 408.715L256.461 433.051C249.133 431.813 241.254 431.141 232.969 431.141C190.547 431.141 158.555 448.523 158.555 471.57C158.555 494.617 190.547 512 232.969 512C275.391 512 307.383 494.617 307.383 471.57C307.383 457.984 296.262 446.375 278.449 439.129V439.129ZM232.969 492C200.258 492 178.555 479.703 178.555 471.57C178.555 463.438 200.258 451.141 232.969 451.141C265.68 451.141 287.383 463.438 287.383 471.57C287.383 479.703 265.68 492 232.969 492Z" fill="#2683E8"></path> <path fill-rule="evenodd" clip-rule="evenodd" d="M218.145 272.773C218.879 272.937 219.605 273.016 220.328 273.016C224.91 273.016 229.043 269.844 230.078 265.188C231.277 259.797 227.883 254.453 222.492 253.254L195 247.129C195.516 245.133 195.785 243.082 195.785 240.98C195.785 222.242 174.941 209.586 151.066 203.895L195.688 114.523C195.758 114.379 195.828 114.23 195.895 114.082C200.438 103.742 202.742 92.7383 202.742 81.3711C202.742 36.5039 166.242 0 121.371 0C76.5039 0 40 36.5039 40 81.3711C40 92.7344 42.3047 103.738 46.8516 114.082C46.9141 114.23 46.9844 114.379 47.0586 114.523L91.7227 203.984C67.7852 209.812 46.957 222.473 46.957 240.984C46.957 264.031 78.9492 281.41 121.371 281.41C147.141 281.41 169.047 274.988 182.285 264.789L218.145 272.773ZM60 81.3711C60 47.5312 87.5312 20 121.371 20C155.211 20 182.742 47.5312 182.742 81.3711C182.742 89.8711 181.039 98.0938 177.68 105.816L121.371 218.598L65.0664 105.816C61.7031 98.0898 60 89.8672 60 81.3711ZM66.957 240.984C66.957 235.73 79.9805 226.598 100.93 222.426L112.426 245.449C114.117 248.84 117.582 250.98 121.371 250.98C125.16 250.98 128.625 248.84 130.32 245.449L141.844 222.363C163.031 226.383 175.785 235.492 175.785 240.98C175.785 242.687 174.816 244.578 173.008 246.5C172.703 246.77 172.414 247.051 172.145 247.355C164.68 254.324 146.203 261.41 121.371 261.41C88.6602 261.41 66.957 249.117 66.957 240.984V240.984Z" fill="#2683E8"></path> <path fill-rule="evenodd" clip-rule="evenodd" d="M315.164 377.004C309.656 377.004 305.164 381.492 305.164 387.004C305.164 392.512 309.656 397.004 315.164 397.004C320.672 397.004 325.164 392.512 325.164 387.004C325.164 381.492 320.672 377.004 315.164 377.004Z" fill="#2683E8"></path> <path fill-rule="evenodd" clip-rule="evenodd" d="M259.367 281.707C264.875 281.707 269.367 277.215 269.367 271.707C269.367 266.199 264.875 261.707 259.367 261.707C253.859 261.707 249.367 266.199 249.367 271.707C249.367 277.215 253.859 281.707 259.367 281.707Z" fill="#2683E8"></path> </svg> 