<?xml version="1.0" encoding="UTF-8"?> <svg xmlns="http://www.w3.org/2000/svg" width="512" height="512" viewBox="0 0 512 512" fill="none"> <path d="M184 140C184 137.627 183.296 135.307 181.978 133.333C180.659 131.36 178.785 129.822 176.592 128.913C174.399 128.005 171.987 127.768 169.659 128.231C167.331 128.694 165.193 129.836 163.515 131.515C161.836 133.193 160.694 135.331 160.231 137.659C159.768 139.987 160.005 142.399 160.913 144.592C161.822 146.785 163.36 148.659 165.333 149.978C167.307 151.296 169.627 152 172 152C175.182 151.997 178.232 150.731 180.481 148.481C182.731 146.232 183.997 143.182 184 140V140Z" fill="#2683E8"></path> <path d="M244 152C246.373 152 248.693 151.296 250.667 149.978C252.64 148.659 254.178 146.785 255.087 144.592C255.995 142.399 256.232 139.987 255.769 137.659C255.306 135.331 254.164 133.193 252.485 131.515C250.807 129.836 248.669 128.694 246.341 128.231C244.013 127.768 241.601 128.005 239.408 128.913C237.215 129.822 235.341 131.36 234.022 133.333C232.704 135.307 232 137.627 232 140C232.003 143.182 233.269 146.232 235.519 148.481C237.768 150.731 240.818 151.997 244 152V152Z" fill="#2683E8"></path> <path d="M208 200C214.363 199.993 220.463 197.462 224.962 192.962C229.462 188.463 231.993 182.363 232 176H216C216 178.122 215.157 180.157 213.657 181.657C212.157 183.157 210.122 184 208 184C205.878 184 203.843 183.157 202.343 181.657C200.843 180.157 200 178.122 200 176H184C184.007 182.363 186.538 188.463 191.038 192.962C195.537 197.462 201.637 199.993 208 200V200Z" fill="#2683E8"></path> <path d="M134.588 392C131.43 391.963 128.299 392.594 125.402 393.852C122.505 395.109 119.906 396.965 117.776 399.297C115.646 401.629 114.034 404.385 113.043 407.384C112.053 410.384 111.708 413.558 112.031 416.7C112.621 423.039 115.545 428.932 120.234 433.238C124.924 437.543 131.046 439.953 137.412 440C140.57 440.037 143.7 439.406 146.598 438.149C149.495 436.891 152.094 435.035 154.223 432.703C156.353 430.371 157.966 427.615 158.956 424.616C159.946 421.617 160.291 418.442 159.969 415.3C159.379 408.961 156.455 403.068 151.765 398.762C147.075 394.457 140.954 392.047 134.588 392V392ZM142.388 421.934C141.749 422.608 140.975 423.14 140.117 423.496C139.259 423.852 138.336 424.023 137.408 424C135.052 423.925 132.801 423.005 131.067 421.407C129.333 419.81 128.232 417.642 127.965 415.3C127.857 414.362 127.947 413.412 128.229 412.511C128.512 411.61 128.98 410.778 129.604 410.069C130.243 409.395 131.017 408.863 131.875 408.507C132.732 408.152 133.655 407.98 134.584 408.003C136.94 408.078 139.191 408.998 140.924 410.596C142.658 412.193 143.759 414.361 144.027 416.703C144.135 417.641 144.046 418.591 143.764 419.492C143.483 420.393 143.015 421.225 142.392 421.934H142.388Z" fill="#2683E8"></path> <path d="M496 440C496 425.148 490.1 410.904 479.598 400.402C469.096 389.9 454.852 384 440 384H432.325C430.197 384.031 428.14 383.236 426.588 381.781C425.035 380.326 424.107 378.325 424 376.2C423.97 375.132 424.156 374.069 424.545 373.074C424.934 372.079 425.518 371.172 426.265 370.407C427.011 369.642 427.903 369.035 428.888 368.622C429.873 368.208 430.931 367.997 432 368H455.454C468.881 368 480.223 357.013 479.997 343.589C479.882 337.298 477.304 331.304 472.817 326.893C468.33 322.482 462.292 320.007 456 320H432C429.209 320.002 426.423 320.21 423.663 320.623C424.82 310.398 422.982 300.057 418.372 290.857L416 286.111V256C416.011 253.901 415.193 251.883 413.724 250.385C412.254 248.886 410.252 248.029 408.154 248C400.236 247.964 392.475 250.208 385.798 254.464C379.121 258.72 373.81 264.807 370.5 272H349.5C346.189 264.807 340.877 258.719 334.2 254.463C327.522 250.207 319.76 247.964 311.842 248C309.744 248.03 307.743 248.888 306.275 250.386C304.806 251.884 303.988 253.902 304 256V274.734C298.861 272.918 293.45 271.994 288 272H248V237.285C257.831 231.657 266.345 223.99 272.968 214.799C279.591 205.609 284.171 195.107 286.4 184H287.35C304.95 184 319.736 170.069 319.993 152.475C320.073 146.781 318.632 141.168 315.82 136.216C313.007 131.265 308.925 127.153 303.993 124.305V109.258C310.585 106.934 316.59 103.198 321.587 98.3118C326.585 93.4254 330.455 87.5064 332.928 80.9685C335.4 74.4307 336.414 67.4318 335.899 60.4611C335.385 53.4904 333.354 46.7163 329.949 40.6122C326.544 34.5081 321.847 29.2214 316.186 25.1217C310.525 21.022 304.036 18.2082 297.175 16.8771C290.313 15.546 283.243 15.7297 276.46 17.4154C269.677 19.101 263.343 22.2479 257.903 26.636C245.045 19.6402 230.638 15.9831 216 16H200C176.661 16 154.278 25.2714 137.775 41.7746C121.271 58.2778 112 80.661 112 104V124.305C107.068 127.153 102.985 131.265 100.173 136.216C97.3603 141.168 95.9198 146.781 95.9999 152.475C96.2599 170.069 111.05 184 128.646 184H129.596C131.825 195.108 136.406 205.61 143.03 214.8C149.654 223.991 158.168 231.658 168 237.286V272H123.8C111.985 271.99 100.582 276.342 91.7792 284.223C82.9761 292.103 77.3926 302.956 76.0999 314.7L73.7299 336H38.2459C34.8651 336 31.5287 336.77 28.4903 338.253C25.4519 339.735 22.7913 341.89 20.7108 344.555C18.6303 347.22 17.1846 350.324 16.4835 353.631C15.7824 356.939 15.8445 360.362 16.6649 363.642L45.0849 483.686C45.9148 487.192 47.9035 490.314 50.729 492.549C53.5545 494.784 57.0515 496 60.6539 496H440C443.123 496 446.24 495.739 449.32 495.221C449.349 495.221 449.377 495.209 449.406 495.205L449.474 495.191C462.511 492.997 474.346 486.244 482.867 476.135C491.389 466.027 496.043 453.221 496 440V440ZM468.286 411.72C472.892 416.328 476.303 421.992 478.223 428.218C480.143 434.444 480.513 441.045 479.303 447.447C478.092 453.849 475.336 459.858 471.275 464.953C467.214 470.048 461.971 474.075 456 476.683V457.883C456.333 457.583 456.665 457.283 456.987 456.965C459.884 454.062 461.988 450.465 463.1 446.517C464.212 442.57 464.294 438.403 463.339 434.415C462.384 430.427 460.423 426.75 457.643 423.734C454.863 420.719 451.358 418.466 447.46 417.19C444.074 410.837 439.735 405.039 434.594 400H440C445.256 399.984 450.462 401.012 455.318 403.024C460.173 405.036 464.581 407.992 468.286 411.72V411.72ZM418.437 338.367C422.786 336.796 427.376 335.995 432 336H456C458.122 336 460.156 336.843 461.657 338.343C463.157 339.843 464 341.878 464 344C464 346.122 463.157 348.157 461.657 349.657C460.156 351.157 458.122 352 456 352H432C426.777 351.995 421.696 353.695 417.528 356.843C413.36 359.99 410.334 364.412 408.91 369.437L404.41 355.947C410.276 351.144 415.056 345.153 418.437 338.367V338.367ZM320 288V265.292C323.728 266.533 327.115 268.626 329.892 271.405C332.67 274.183 334.761 277.572 336 281.3L336.41 282.531C336.941 284.124 337.96 285.509 339.322 286.491C340.684 287.472 342.321 288 344 288H376C377.679 288 379.316 287.471 380.678 286.489C382.041 285.507 383.059 284.121 383.59 282.528L384 281.3C385.239 277.572 387.331 274.184 390.108 271.405C392.885 268.627 396.272 266.534 400 265.293V288C400 289.242 400.289 290.467 400.845 291.577L404.062 298.013C406.907 303.7 408.25 310.02 407.965 316.372C407.68 322.725 405.776 328.899 402.433 334.308C399.09 339.718 394.42 344.182 388.866 347.279C383.312 350.375 377.059 352.001 370.7 352H349.31C342.951 352 336.698 350.375 331.144 347.278C325.59 344.182 320.919 339.717 317.576 334.308C314.233 328.899 312.328 322.725 312.042 316.372C311.757 310.02 313.099 303.7 315.943 298.012L319.16 291.577C319.714 290.466 320.002 289.241 320 288ZM267.6 480C268.652 476.399 268.774 472.589 267.953 468.928L266.862 464H317.773C314.644 468.805 312.72 474.293 312.164 480H267.6ZM301.545 291.027C295.763 302.682 294.447 316.05 297.847 328.608C301.247 341.167 309.127 352.046 320 359.191V448H290.054C298.579 435.776 302.977 421.149 302.607 406.251C302.238 391.353 297.12 376.962 288 365.176V288C292.684 287.997 297.311 289.031 301.549 291.027H301.545ZM272 288V368C272 369.887 272.667 371.713 273.883 373.156C282.111 382.905 286.625 395.251 286.623 408.008C286.621 420.765 282.105 433.11 273.874 442.856C272.664 444.297 272.001 446.118 272 448H263.306L242.941 356.36C242.141 352.695 240.553 349.248 238.288 346.259C236.022 343.269 233.133 340.808 229.821 339.047C232.834 337.594 235.695 335.846 238.364 333.83C247.136 327.256 253.502 317.979 256.482 307.43L262.034 288H272ZM184 272V244.338C199.628 249.22 216.372 249.22 232 244.338V272C232.007 275.799 233.364 279.472 235.829 282.362C238.294 285.252 241.707 287.172 245.457 287.778L241.097 303.035C239.041 310.227 234.699 316.553 228.727 321.057C222.756 325.562 215.48 327.999 208 328C200.525 327.977 193.259 325.531 187.291 321.03C181.323 316.528 176.976 310.213 174.9 303.032L170.541 287.778C174.292 287.173 177.705 285.253 180.17 282.363C182.636 279.472 183.993 275.799 184 272ZM288 168V136C292.243 136 296.313 137.686 299.314 140.686C302.314 143.687 304 147.757 304 152C304 156.243 302.314 160.313 299.314 163.314C296.313 166.314 292.243 168 288 168ZM288 32C295.122 32.0003 302.041 34.3767 307.661 38.7531C313.28 43.1295 317.279 49.2556 319.024 56.1611C320.769 63.0667 320.16 70.357 317.293 76.8774C314.427 83.3978 309.468 88.7756 303.2 92.159C300.214 70.2694 289.103 50.3041 272.074 36.23C276.917 33.4416 282.411 31.9824 288 32V32ZM128 104C128.021 84.911 135.614 66.61 149.112 53.112C162.61 39.614 180.911 32.0215 200 32H216C235.089 32.0215 253.39 39.614 266.888 53.112C280.386 66.61 287.978 84.911 288 104V120H284.944L255.155 60.422C254.621 59.3548 253.856 58.4204 252.915 57.6873C251.973 56.9541 250.88 56.4408 249.715 56.1849C248.549 55.929 247.342 55.937 246.18 56.2084C245.018 56.4797 243.931 57.0075 243 57.753C242.373 58.253 179.786 108.017 134.241 118.235C132.086 118.72 130.005 119.106 127.997 119.392L128 104ZM112 152C112.005 147.758 113.692 143.691 116.692 140.692C119.691 137.692 123.758 136.005 128 136V168C123.758 167.995 119.691 166.308 116.692 163.308C113.692 160.309 112.005 156.242 112 152V152ZM144 168V132.244C182.386 121.406 227.322 89.666 245.186 76.261L272 129.889V168C272 184.974 265.257 201.253 253.255 213.255C241.252 225.257 224.974 232 208 232C191.026 232 174.747 225.257 162.745 213.255C150.743 201.253 144 184.974 144 168ZM153.966 288L159.518 307.427C162.913 319.23 170.496 329.389 180.846 336H144V288H153.966ZM91.9999 316.464C92.8619 308.635 96.5844 301.4 102.453 296.147C108.322 290.894 115.924 287.993 123.8 288H128V336H89.8289L91.9999 316.464ZM70.0539 480C67.8233 480.002 65.6561 479.258 63.8981 477.885C62.14 476.512 60.8923 474.59 60.3539 472.425L32.1859 359.756C32.0619 359.262 31.9994 358.755 31.9999 358.246C32.0018 356.59 32.6604 355.002 33.8314 353.831C35.0023 352.661 36.5899 352.002 38.2459 352H217.561C219.839 351.989 222.052 352.761 223.828 354.187C225.605 355.612 226.839 357.605 227.322 359.831L252.338 472.4C252.541 473.313 252.536 474.26 252.324 475.171C252.111 476.082 251.697 476.934 251.111 477.664C250.526 478.393 249.784 478.982 248.94 479.386C248.097 479.791 247.173 480 246.238 480H70.0539ZM400 479.982V416H384V479.986L360.3 479.992C360.97 476.075 362.842 472.463 365.656 469.657C366.399 468.914 366.988 468.032 367.391 467.062C367.793 466.091 368 465.051 368 464V416H352V460.925C347.528 466.351 344.795 472.998 344.157 480H328.291C328.982 476.085 330.854 472.476 333.657 469.657C334.4 468.914 334.989 468.032 335.391 467.062C335.793 466.091 336 465.051 336 464V366.319C340.346 367.438 344.817 368.003 349.305 368H370.7C377.418 368.003 384.076 366.728 390.318 364.243L400.418 394.53C400.785 395.633 401.389 396.643 402.187 397.49C402.984 398.336 403.957 398.998 405.037 399.43C415.362 403.546 424.212 410.671 430.437 419.879C432.078 422.31 433.527 424.866 434.771 427.523C438.23 434.893 440.016 442.938 440 451.08V479.972L400 479.982Z" fill="#2683E8"></path> <path d="M344 304H328V320H344V304Z" fill="#2683E8"></path> <path d="M392 304H376V320H392V304Z" fill="#2683E8"></path> </svg> 