<?xml version="1.0" encoding="UTF-8"?> <svg xmlns="http://www.w3.org/2000/svg" width="512" height="512" viewBox="0 0 512 512" fill="none"> <g clip-path="url(#clip0_128_5156)"> <path d="M316 260C310.48 260 306 264.48 306 270C306 275.52 310.48 280 316 280C321.519 280 326 275.52 326 270C326 264.48 321.519 260 316 260Z" fill="#7EC752"></path> <path d="M102.168 369.785L2.1678 495.785C-0.218918 498.789 -0.672043 502.895 0.995926 506.348C2.66389 509.805 6.16389 512 9.99983 512H502C505.836 512 509.336 509.805 511.004 506.348C512.676 502.895 512.219 498.789 509.832 495.785L409.832 369.785C407.937 367.395 405.051 366 402 366H314.402L389.187 248.703C406.73 222.402 416 191.73 416 160C416 71.7773 344.226 0 256 0C167.773 0 95.9998 71.7773 95.9998 160C95.9998 191.73 105.269 222.398 122.812 248.703L197.597 366H110C106.949 366 104.066 367.395 102.168 369.785V369.785ZM64.8319 449H125.297L91.1717 492H30.703L64.8319 449ZM210.351 386L237.765 429H166.703L200.832 386H210.351ZM301.652 386H311.172L345.297 429H274.238L301.652 386ZM361.172 449L395.297 492H116.703L150.832 449H361.172ZM420.832 492L386.703 449H447.172L481.297 492H420.832ZM431.297 429H370.832L336.703 386H397.172L431.297 429ZM139.508 237.688C124.129 214.664 116 187.801 116 160C116 82.8047 178.805 20 256 20C333.195 20 396 82.8047 396 160C396 187.801 387.871 214.664 372.496 237.688C372.453 237.746 372.418 237.805 372.379 237.863C365.812 248.164 261.058 412.469 256 420.398C243.277 400.441 152.578 258.184 139.621 237.863C139.586 237.805 139.547 237.746 139.508 237.688V237.688ZM175.297 386L141.172 429H80.703L114.832 386H175.297Z" fill="#7EC752"></path> <path d="M256 260C310.898 260 356 215.543 356 160C356 104.859 311.141 60 256 60C200.859 60 156 104.859 156 160C156 215.559 201.117 260 256 260ZM256 80C300.113 80 336 115.887 336 160C336 204.523 299.824 240 256 240C212.164 240 176 204.523 176 160C176 115.887 211.887 80 256 80Z" fill="#7EC752"></path> <path d="M298.121 294.125C293.394 291.273 287.246 292.797 284.394 297.527L247.433 358.847C244.582 363.578 246.105 369.722 250.836 372.574C255.586 375.437 261.722 373.883 264.562 369.172L301.523 307.851C304.375 303.121 302.851 296.976 298.121 294.125V294.125Z" fill="#7EC752"></path> </g> <defs> <clipPath id="clip0_128_5156"> <rect width="512" height="512" fill="white"></rect> </clipPath> </defs> </svg> 