<?xml version="1.0" encoding="UTF-8"?> <svg xmlns="http://www.w3.org/2000/svg" width="512" height="512" viewBox="0 0 512 512" fill="none"> <path d="M480 360H436C433.792 360 432 358.208 432 356C432 355.128 432.28 354.296 432.8 353.6C447.768 333.656 456 308.936 456 284V280C456 257.944 438.056 240 416 240C407.176 240 400 247.176 400 256V269.8C400 289.72 392.24 308.44 378.16 322.528C373.472 327.208 368.184 331.256 362.432 334.536L317.872 360H296V344H151.848C161.936 330.608 168 314.024 168 296C168 251.888 132.112 216 88 216C43.888 216 8 251.888 8 296C8 340.112 43.888 376 88 376C99.376 376 110.192 373.576 120 369.272V504H296V488H318.464L358.464 504H480C493.232 504 504 493.232 504 480C504 473.832 501.592 468.256 497.76 464C501.6 459.744 504 454.168 504 448C504 441.832 501.592 436.256 497.76 432C501.6 427.744 504 422.168 504 416C504 409.832 501.592 404.256 497.76 400C501.6 395.744 504 390.168 504 384C504 370.768 493.232 360 480 360ZM24 296C24 260.712 52.712 232 88 232C123.288 232 152 260.712 152 296C152 311.144 146.688 325.064 137.856 336.032C131.52 328.144 123.488 321.928 114.408 317.808C122.68 310.472 128 299.896 128 288C128 265.944 110.056 248 88 248C65.944 248 48 265.944 48 288C48 299.896 53.32 310.472 61.592 317.808C52.512 321.936 44.48 328.152 38.144 336.032C29.312 325.064 24 311.144 24 296V296ZM64 288C64 274.768 74.768 264 88 264C101.232 264 112 274.768 112 288C112 301.232 101.232 312 88 312C74.768 312 64 301.232 64 288ZM49.664 347.128C58.664 335.192 72.824 328 88 328C103.176 328 117.336 335.2 126.336 347.128C115.632 355.168 102.384 360 88 360C73.616 360 60.368 355.168 49.664 347.128ZM136 360H248V488H136V360ZM280 488H264V360H280V488ZM480 488H361.536L321.536 472H296V376H322.128L370.368 348.432C377.352 344.44 383.784 339.536 389.472 333.84C406.576 316.736 416 293.992 416 269.8V256C429.232 256 440 266.768 440 280V284C440 305.496 432.896 326.808 419.992 344.008C417.416 347.448 416 351.704 416 356C416 367.024 424.976 376 436 376H480C484.408 376 488 379.592 488 384C488 388.408 484.408 392 480 392H440V408H480C484.408 408 488 411.592 488 416C488 420.408 484.408 424 480 424H440V440H480C484.408 440 488 443.592 488 448C488 452.408 484.408 456 480 456H440V472H480C484.408 472 488 475.592 488 480C488 484.408 484.408 488 480 488Z" fill="#2683E8"></path> <path d="M424 224C468.112 224 504 188.112 504 144C504 99.888 468.112 64 424 64C379.888 64 344 99.888 344 144C344 188.112 379.888 224 424 224ZM385.664 195.128C394.664 183.192 408.824 176 424 176C439.176 176 453.336 183.2 462.336 195.128C451.632 203.168 438.384 208 424 208C409.616 208 396.368 203.168 385.664 195.128ZM400 136C400 122.768 410.768 112 424 112C437.232 112 448 122.768 448 136C448 149.232 437.232 160 424 160C410.768 160 400 149.232 400 136ZM424 80C459.288 80 488 108.712 488 144C488 159.144 482.688 173.064 473.856 184.032C467.52 176.144 459.488 169.928 450.408 165.808C458.68 158.472 464 147.896 464 136C464 113.944 446.056 96 424 96C401.944 96 384 113.944 384 136C384 147.896 389.32 158.472 397.592 165.808C388.512 169.936 380.48 176.152 374.144 184.032C365.312 173.064 360 159.144 360 144C360 108.712 388.712 80 424 80Z" fill="#2683E8"></path> <path d="M216 232C277.76 232 328 181.76 328 120C328 58.24 277.76 8 216 8C154.24 8 104 58.24 104 120C104 181.76 154.24 232 216 232ZM216 216C189.04 216 164.672 204.784 147.216 186.824C150.96 174.576 157.728 163.88 166.632 155.512L179.16 205.624L216 178L252.84 205.632L265.368 155.52C274.264 163.888 281.032 174.584 284.784 186.832C267.328 204.784 242.96 216 216 216V216ZM184 88C184 70.352 198.352 56 216 56C233.648 56 248 70.352 248 88C248 105.648 233.648 120 216 120C198.352 120 184 105.648 184 88ZM216 155.504L201.08 137.6C205.912 136.592 210.896 136 216 136C221.104 136 226.088 136.592 230.92 137.6L216 155.504ZM247.168 143.096C248.616 143.784 250.04 144.504 251.432 145.288L243.16 178.376L227.536 166.656L247.168 143.096ZM184.832 143.096L204.464 166.656L188.84 178.376L180.568 145.288C181.96 144.496 183.384 143.784 184.832 143.096V143.096ZM216 24C268.936 24 312 67.064 312 120C312 139.272 306.24 157.192 296.424 172.248C286.68 150.2 268.416 133.384 246.136 125.304C257.024 116.496 264 103.056 264 88C264 61.528 242.472 40 216 40C189.528 40 168 61.528 168 88C168 103.056 174.976 116.496 185.856 125.304C163.576 133.376 145.312 150.2 135.568 172.248C125.76 157.192 120 139.272 120 120C120 67.064 163.064 24 216 24V24Z" fill="#2683E8"></path> <path d="M184 248H200V264H184V248Z" fill="#2683E8"></path> <path d="M216 248H344V264H216V248Z" fill="#2683E8"></path> <path d="M184 280H344V296H184V280Z" fill="#2683E8"></path> <path d="M184 312H328V328H184V312Z" fill="#2683E8"></path> <path d="M152 456H168V472H152V456Z" fill="#2683E8"></path> <path d="M184 456H200V472H184V456Z" fill="#2683E8"></path> <path d="M216 456H232V472H216V456Z" fill="#2683E8"></path> </svg> 