<?xml version="1.0" encoding="UTF-8"?> <svg xmlns="http://www.w3.org/2000/svg" width="512" height="512" viewBox="0 0 512 512" fill="none"> <g clip-path="url(#clip0_143_3753)"> <path d="M53.9684 384.074C50.4215 384.785 47.5348 387.351 46.4176 390.793C45.3004 394.23 46.1246 398.004 48.5778 400.664L64.8668 418.312L62.0621 442.164C61.6403 445.758 63.1911 449.297 66.1168 451.422C69.0426 453.547 72.8903 453.926 76.1754 452.418L97.9918 442.379L119.812 452.418C121.144 453.031 122.57 453.332 123.988 453.332C126.066 453.332 128.129 452.683 129.867 451.422C132.793 449.297 134.343 445.758 133.922 442.164L131.117 418.312L147.406 400.664C149.859 398.004 150.683 394.23 149.57 390.789C148.449 387.351 145.562 384.781 142.015 384.074L118.464 379.367L106.711 358.422C104.941 355.269 101.609 353.316 97.9918 353.316C94.3746 353.316 91.0387 355.269 89.2692 358.422L77.5192 379.367L53.9684 384.074ZM92.7106 393.168L97.9918 383.758L103.277 393.172C104.703 395.715 107.172 397.511 110.039 398.082L120.621 400.199L113.3 408.129C111.324 410.277 110.379 413.179 110.718 416.082L111.98 426.801L102.172 422.289C99.5192 421.07 96.4684 421.07 93.8161 422.289L84.0075 426.801L85.2692 416.082C85.609 413.179 84.6637 410.277 82.6832 408.133L75.3629 400.199L85.9489 398.082C88.8121 397.511 91.2809 395.715 92.7106 393.168V393.168Z" fill="#108C90"></path> <path d="M465.581 96.1372C464.464 92.6958 461.577 90.1294 458.03 89.4224L434.479 84.7153L422.725 63.77C420.956 60.6177 417.624 58.6646 414.006 58.6646C410.389 58.6646 407.053 60.6177 405.284 63.77L393.534 84.7153L369.979 89.4224C366.432 90.1294 363.546 92.6958 362.428 96.1372C361.311 99.5747 362.135 103.352 364.589 106.012L380.878 123.661L378.073 147.512C377.651 151.106 379.202 154.645 382.128 156.77C385.053 158.895 388.897 159.274 392.186 157.766L414.003 147.727L435.823 157.766C437.155 158.379 438.581 158.68 439.999 158.68C442.077 158.68 444.143 158.036 445.878 156.77C448.807 154.645 450.354 151.106 449.932 147.516L447.131 123.661L463.417 106.012C465.874 103.352 466.698 99.5747 465.581 96.1372V96.1372ZM429.315 113.477C427.335 115.622 426.389 118.524 426.733 121.426L427.991 132.145L418.186 127.633C416.858 127.024 415.432 126.719 414.006 126.719C412.577 126.719 411.151 127.024 409.827 127.633L400.018 132.145L401.28 121.422C401.62 118.524 400.674 115.618 398.694 113.473L391.378 105.543L401.964 103.426C404.823 102.856 407.296 101.059 408.725 98.5122L414.006 89.0981L419.288 98.5122C420.717 101.059 423.186 102.856 426.049 103.426L436.635 105.543L429.315 113.477Z" fill="#108C90"></path> <path d="M8.35982 301.301L46.9887 307.734C47.5473 307.824 48.0981 307.871 48.6411 307.871C53.4419 307.871 57.6801 304.402 58.4965 299.512C59.4028 294.062 55.7231 288.91 50.2739 288.004L11.645 281.57C6.19185 280.66 1.04342 284.348 0.137165 289.793C-0.769085 295.242 2.9106 300.394 8.35982 301.301V301.301Z" fill="#108C90"></path> <path d="M440.1 369.093C442.76 364.742 444.296 359.625 444.296 354.16C444.296 338.328 431.417 325.445 415.581 325.445H381.436C381.362 325.445 381.288 325.449 381.214 325.449H361.8C358.804 325.449 356.034 324.09 354.202 321.719C352.37 319.351 351.753 316.332 352.507 313.437L361.308 279.59C363.96 269.394 361.788 258.766 355.343 250.43C348.897 242.09 339.159 237.309 328.62 237.309H326.019C322.269 237.309 318.835 239.406 317.124 242.746L286.601 302.226C282.484 310.258 276.573 317.289 269.46 322.773V321.57C269.46 316.047 264.98 311.57 259.46 311.57H191.792L129.789 301.246C124.336 300.336 119.191 304.019 118.281 309.469C117.375 314.914 121.054 320.066 126.504 320.972L180.964 330.043V491.995H10.0039C4.48046 491.995 0.00390625 496.476 0.00390625 501.995C0.00390625 507.519 4.48046 511.995 10.0039 511.995H259.46C264.984 511.995 269.46 507.519 269.46 501.995V495.148H365.741C365.847 495.152 365.952 495.152 366.058 495.152H400.202C416.034 495.152 428.917 482.273 428.917 466.441C428.917 461.859 427.839 457.527 425.921 453.679C434.319 448.663 439.948 439.484 439.948 429.015C439.948 424.433 438.87 420.097 436.956 416.253C445.35 411.238 450.983 402.058 450.983 391.586C450.983 382.484 446.725 374.359 440.1 369.093V369.093ZM249.46 491.995H200.964V331.57H249.46V491.995ZM422.272 400.3H411.237C405.714 400.3 401.237 404.777 401.237 410.3C401.237 415.824 405.714 420.3 411.237 420.3C416.042 420.3 419.952 424.21 419.952 429.015C419.952 433.82 416.042 437.726 411.237 437.726H400.202C394.682 437.726 390.202 442.203 390.202 447.726C390.202 453.249 394.682 457.726 400.202 457.726C405.011 457.726 408.917 461.636 408.917 466.441C408.917 471.242 405.011 475.152 400.202 475.152H366.374C366.269 475.148 366.163 475.148 366.058 475.148H269.46V346.406C284.374 338.691 296.726 326.32 304.398 311.355L331.925 257.707C334.917 258.437 337.585 260.156 339.522 262.66C342.147 266.059 343.038 270.394 341.952 274.555L333.155 308.402C330.827 317.336 332.733 326.648 338.382 333.953C344.03 341.258 352.565 345.449 361.804 345.449H381.44H381.663H415.585C420.389 345.449 424.3 349.355 424.3 354.16C424.3 358.965 420.389 362.875 415.585 362.875C410.065 362.875 405.585 367.351 405.585 372.875C405.585 378.394 410.065 382.875 415.585 382.875H422.272C427.077 382.875 430.987 386.781 430.987 391.586C430.987 396.39 427.077 400.3 422.272 400.3V400.3Z" fill="#108C90"></path> <path d="M503.639 210.695L331.034 181.953V20.0007H501.999C507.518 20.0007 511.999 15.5241 511.999 10.0007C511.999 4.47728 507.518 0.000732422 501.999 0.000732422H252.539C247.019 0.000732422 242.539 4.47728 242.539 10.0007V16.8483H146.258C146.156 16.8483 146.051 16.8444 145.945 16.8444H111.797C95.9647 16.8444 83.0859 29.7272 83.0859 45.5592C83.0859 50.1373 84.164 54.4732 86.0781 58.317C77.6835 63.3365 72.0508 72.5122 72.0508 82.9849C72.0508 87.5669 73.1289 91.8989 75.0429 95.7427C66.6484 100.762 61.0156 109.942 61.0156 120.411C61.0156 129.512 65.2734 137.641 71.9023 142.903C69.2383 147.258 67.7031 152.371 67.7031 157.836C67.7031 173.672 80.5859 186.551 96.4179 186.551H130.562C130.637 186.551 130.711 186.551 130.785 186.547H150.199C153.195 186.547 155.965 187.906 157.797 190.278C159.629 192.645 160.246 195.664 159.492 198.563L150.691 232.41C148.039 242.606 150.211 253.23 156.656 261.566C163.101 269.906 172.843 274.687 183.379 274.687H185.98C189.73 274.687 193.164 272.59 194.879 269.254L225.398 209.77C229.515 201.738 235.425 194.711 242.539 189.223V190.426C242.539 195.949 247.019 200.426 252.539 200.426H320.206L500.354 230.426C500.913 230.52 501.464 230.563 502.01 230.563C506.811 230.563 511.05 227.094 511.862 222.203C512.768 216.754 509.089 211.606 503.639 210.695V210.695ZM242.539 165.59C227.625 173.309 215.273 185.676 207.601 200.641L180.074 254.293C177.086 253.563 174.418 251.844 172.476 249.336C169.851 245.938 168.965 241.602 170.047 237.441L178.847 203.594C181.172 194.66 179.265 185.348 173.621 178.043C167.972 170.739 159.433 166.547 150.199 166.547H130.562C130.488 166.547 130.414 166.547 130.336 166.551H96.4179C91.6132 166.551 87.7031 162.641 87.7031 157.836C87.7031 153.032 91.6132 149.125 96.4179 149.125C101.937 149.125 106.418 144.649 106.418 139.125C106.418 133.602 101.937 129.125 96.4179 129.125H89.7304C84.9257 129.125 81.0156 125.215 81.0156 120.411C81.0156 115.606 84.9257 111.7 89.7304 111.7H100.762C106.285 111.7 110.762 107.223 110.762 101.7C110.762 96.1762 106.285 91.6997 100.762 91.6997C95.9569 91.6997 92.0468 87.7895 92.0468 82.9849C92.0468 78.1802 95.9569 74.2701 100.762 74.2701H111.797C117.316 74.2701 121.797 69.7935 121.797 64.2701C121.797 58.7506 117.316 54.2701 111.797 54.2701C106.992 54.2701 103.082 50.3639 103.082 45.5592C103.082 40.7545 106.992 36.8444 111.797 36.8444H145.629C145.73 36.8483 145.836 36.8522 145.941 36.8522H242.539V165.59ZM262.538 20.0007H311.034V180.426H262.538V20.0007Z" fill="#108C90"></path> <path d="M79.9417 310.828C82.2581 314.367 86.7777 316.035 90.848 314.937C94.7737 313.879 97.7073 310.457 98.1917 306.426C98.6878 302.277 96.4066 298.156 92.6722 296.316C88.93 294.473 84.3011 295.195 81.2972 298.094C77.8714 301.406 77.305 306.871 79.9417 310.828V310.828Z" fill="#108C90"></path> </g> <defs> <clipPath id="clip0_143_3753"> <rect width="512" height="512" fill="white"></rect> </clipPath> </defs> </svg> 