<?xml version="1.0" encoding="UTF-8"?> <svg xmlns="http://www.w3.org/2000/svg" width="116" height="116" viewBox="0 0 116 116" fill="none"> <g clip-path="url(#clip0_170_179)"> <path d="M58.2502 20.1233C37.6098 20.1233 20.8168 36.9153 20.8168 57.5567C20.8168 78.1971 37.6098 94.99 58.2502 94.99C78.8916 94.99 95.6836 78.1971 95.6836 57.5567C95.6836 36.9153 78.8916 20.1233 58.2502 20.1233V20.1233ZM39.4098 84.9494V71.828C39.4201 67.7905 42.4344 64.3908 46.4413 63.8971C51.737 70.0689 60.8935 71.1186 67.4476 66.3053C68.4063 65.6041 69.2813 64.7966 70.0561 63.8971C74.065 64.3908 77.0793 67.7895 77.0906 71.828V84.9494C71.5955 88.6394 65.2305 90.8033 58.2502 90.8033C51.2699 90.8033 44.905 88.6394 39.4098 84.9494ZM81.2773 81.5364V71.828C81.26 65.1032 75.8088 59.6582 69.083 59.65C68.4176 59.65 67.791 59.9679 67.3965 60.5046C65.2581 63.4157 61.8625 65.136 58.2502 65.136C54.6379 65.136 51.2413 63.4157 49.1029 60.5046C48.7094 59.9679 48.0828 59.65 47.4174 59.65C40.6926 59.6582 35.2405 65.1032 35.2231 71.828V81.5364C28.6915 75.2686 24.9964 66.6089 24.9913 57.5567C24.9913 39.2243 39.9117 24.31 58.2441 24.31C76.5764 24.31 91.505 39.2253 91.505 57.5567C91.502 66.6089 87.8079 75.2686 81.2773 81.5364Z" fill="#009688"></path> <path d="M109.06 63.4289C109.565 58.7618 109.443 54.0476 108.697 49.4121L114.49 43.8557C115.124 43.2485 115.311 42.3102 114.959 41.5057L108.363 26.4279C108.008 25.6143 107.178 25.1134 106.292 25.1799L98.2717 25.7696C95.3851 22.0551 91.9599 18.7924 88.1094 16.0898L88.3445 8.07817C88.3711 7.19094 87.8344 6.38343 87.0065 6.0635L71.6598 0.140107C70.835 -0.177784 69.8987 0.05629 69.3212 0.725802L64.1245 6.74834C59.4563 6.2434 54.7411 6.36503 50.1057 7.11121L44.5492 1.31763C43.9421 0.683893 43.0037 0.496839 42.1993 0.848461L27.1225 7.44647C26.3088 7.80219 25.808 8.63218 25.8734 9.51736L26.4632 17.5382C22.7487 20.4248 19.486 23.85 16.7834 27.6995L8.77172 27.4644C7.88347 27.4347 7.07494 27.9724 6.75705 28.8034L0.834683 44.149C0.515771 44.9739 0.749844 45.9092 1.41936 46.4877L7.44292 51.6843C6.93695 56.3515 7.05859 61.0657 7.80578 65.7012L2.01118 71.2576C1.37745 71.8648 1.19039 72.8031 1.54304 73.6075L8.14003 88.6843C8.49574 89.498 9.32573 89.9988 10.2119 89.9334L18.2318 89.3436C21.1183 93.0581 24.5436 96.3209 28.393 99.0234L28.1579 107.035C28.1313 107.922 28.668 108.73 29.4969 109.05L44.8436 114.973C45.6685 115.292 46.6048 115.058 47.1823 114.387L52.3779 108.364C57.0451 108.87 61.7592 108.748 66.3947 108.002L71.9512 113.796C72.5593 114.429 73.4967 114.616 74.3011 114.265L89.3789 107.668C90.1915 107.312 90.6924 106.482 90.627 105.597L90.0372 97.5771C93.7517 94.6895 97.0144 91.2643 99.717 87.4138L107.729 87.6489C108.616 87.6744 109.423 87.1378 109.743 86.3099L115.667 70.9632C115.985 70.1383 115.751 69.2031 115.081 68.6245L109.06 63.4289ZM106.37 83.4202L98.6979 83.1943C97.9752 83.1719 97.2935 83.5245 96.8938 84.1265C94.1217 88.2898 90.6454 91.9399 86.6222 94.9123C86.0446 95.3396 85.7257 96.0326 85.7789 96.7491L86.3431 104.426L73.9617 109.842L68.6465 104.3C68.16 103.793 67.4516 103.564 66.7596 103.691C61.8196 104.594 56.7701 104.725 51.7902 104.077C51.092 103.986 50.3949 104.252 49.935 104.785L44.9755 110.535L32.3866 105.678L32.6115 98.0044C32.6329 97.2837 32.2813 96.602 31.6813 96.2013C27.517 93.4282 23.8669 89.9528 20.8945 85.9296C20.4672 85.3521 19.7742 85.0342 19.0577 85.0863L11.3813 85.6506L5.96488 73.2692L11.506 67.954C12.014 67.4675 12.243 66.7591 12.1162 66.0671C11.2116 61.127 11.0818 56.0776 11.7298 51.0976C11.8208 50.3995 11.554 49.7024 11.0215 49.2424L5.27084 44.2809L10.1291 31.692L17.8025 31.9179C18.5231 31.9383 19.2049 31.5867 19.6055 30.9857C22.3787 26.8225 25.854 23.1734 29.8782 20.1999C30.4557 19.7737 30.7736 19.0796 30.7205 18.3641L30.1562 10.6867L42.5376 5.27031L47.8528 10.8124C48.3394 11.3194 49.0487 11.5484 49.7397 11.4227C54.6808 10.517 59.7323 10.3862 64.7133 11.0353C65.4114 11.1262 66.1085 10.8595 66.5685 10.3269L71.529 4.57728L84.1169 9.43559L83.891 17.1079C83.8695 17.8295 84.2211 18.5113 84.8221 18.912C88.9854 21.6841 92.6355 25.1604 95.6079 29.1836C96.0352 29.7612 96.7282 30.079 97.4447 30.0269L105.121 29.4627L110.539 41.8441L104.996 47.1593C104.489 47.6458 104.259 48.3542 104.386 49.0462C105.291 53.9862 105.422 59.0357 104.774 64.0156C104.683 64.7138 104.948 65.4099 105.482 65.8698L111.23 70.8314L106.37 83.4202Z" fill="#009688"></path> <path d="M58.2502 32.7244C50.907 32.7244 44.954 38.6764 44.954 46.0195C44.954 53.3637 50.907 59.3157 58.2502 59.3157C65.5933 59.3157 71.5464 53.3627 71.5464 46.0195C71.5382 38.6805 65.5903 32.7325 58.2502 32.7244ZM58.2502 55.129C53.2191 55.129 49.1407 51.0506 49.1407 46.0195C49.1407 40.9885 53.2191 36.9101 58.2502 36.9101C63.2812 36.9101 67.3596 40.9885 67.3596 46.0195C67.3535 51.0485 63.2792 55.1229 58.2502 55.129Z" fill="#009688"></path> </g> <defs> <clipPath id="clip0_170_179"> <rect width="115.114" height="115.114" fill="white" transform="translate(0.454163)"></rect> </clipPath> </defs> </svg> 