<?xml version="1.0" encoding="UTF-8"?> <svg xmlns="http://www.w3.org/2000/svg" width="512" height="512" viewBox="0 0 512 512" fill="none"> <g clip-path="url(#clip0_143_3699)"> <path d="M257.064 89.5034C165.26 89.5034 90.5684 164.19 90.5684 255.999C90.5684 347.803 165.26 422.494 257.064 422.494C348.872 422.494 423.559 347.803 423.559 255.999C423.559 164.19 348.872 89.5034 257.064 89.5034V89.5034ZM173.266 377.836V319.475C173.311 301.517 186.719 286.396 204.54 284.2C228.095 311.65 268.821 316.32 297.972 294.911C302.236 291.792 306.128 288.2 309.574 284.2C327.405 286.396 340.812 301.512 340.862 319.475V377.836C316.421 394.248 288.111 403.873 257.064 403.873C226.017 403.873 197.707 394.248 173.266 377.836ZM359.483 362.656V319.475C359.406 289.564 335.161 265.346 305.246 265.31C302.286 265.31 299.499 266.724 297.744 269.11C288.233 282.058 273.131 289.71 257.064 289.71C240.997 289.71 225.89 282.058 216.379 269.11C214.628 266.724 211.842 265.31 208.882 265.31C178.972 265.346 154.722 289.564 154.644 319.475V362.656C125.593 334.778 109.158 296.261 109.136 255.999C109.136 174.461 175.498 108.125 257.037 108.125C338.575 108.125 404.974 174.465 404.974 255.999C404.96 296.261 388.53 334.778 359.483 362.656Z" fill="#108C90"></path> <path d="M483.052 282.118C485.303 261.359 484.757 240.391 481.438 219.774L507.207 195.06C510.026 192.36 510.858 188.186 509.294 184.608L479.956 117.545C478.374 113.926 474.683 111.699 470.741 111.994L435.07 114.617C422.232 98.096 406.997 83.5842 389.871 71.5637L390.917 35.9296C391.035 31.9834 388.648 28.3918 384.965 26.9688L316.707 0.622852C313.038 -0.791055 308.874 0.250054 306.305 3.2279L283.191 30.0148C262.428 27.769 241.456 28.31 220.839 31.6288L196.125 5.86022C193.424 3.0415 189.251 2.20952 185.673 3.77346L118.614 33.12C114.996 34.7021 112.768 38.3937 113.059 42.3308L115.682 78.0058C99.1607 90.8447 84.6489 106.079 72.6284 123.201L36.9943 122.155C33.0436 122.023 29.4474 124.415 28.0335 128.111L1.69211 196.365C0.273653 200.034 1.31476 204.194 4.2926 206.767L31.0841 229.88C28.8337 250.639 29.3747 271.607 32.698 292.224L6.92493 316.938C4.1062 319.638 3.27423 323.812 4.84271 327.39L34.1847 394.448C35.7668 398.067 39.4584 400.295 43.4001 400.004L79.0705 397.381C91.9094 413.902 107.144 428.414 124.266 440.434L123.22 476.068C123.102 480.015 125.488 483.606 129.176 485.029L197.434 511.375C201.103 512.794 205.267 511.752 207.836 508.77L230.945 481.979C251.704 484.229 272.671 483.688 293.289 480.369L318.003 506.138C320.708 508.956 324.877 509.788 328.455 508.224L395.517 478.883C399.132 477.3 401.359 473.609 401.068 469.672L398.445 434.001C414.967 421.158 429.478 405.923 441.499 388.797L477.133 389.843C481.079 389.956 484.671 387.57 486.094 383.887L512.44 315.629C513.854 311.96 512.813 307.8 509.835 305.227L483.052 282.118ZM471.091 371.035L436.966 370.03C433.752 369.93 430.72 371.498 428.942 374.176C416.612 392.693 401.15 408.928 383.256 422.149C380.687 424.049 379.269 427.132 379.505 430.319L382.015 464.462L326.945 488.553L303.304 463.902C301.14 461.647 297.99 460.629 294.912 461.193C272.939 465.212 250.481 465.794 228.331 462.911C225.226 462.507 222.125 463.689 220.079 466.062L198.021 491.635L142.028 470.031L143.028 435.902C143.124 432.696 141.56 429.664 138.891 427.882C120.369 415.548 104.134 400.09 90.9137 382.196C89.0133 379.627 85.9309 378.213 82.744 378.445L48.6011 380.955L24.5101 325.885L49.1557 302.244C51.4153 300.08 52.4336 296.93 51.8699 293.852C47.8464 271.879 47.269 249.42 50.1514 227.271C50.556 224.166 49.3694 221.065 47.0008 219.019L21.4232 196.951L43.0318 140.959L77.1611 141.964C80.3662 142.054 83.3986 140.491 85.1808 137.817C97.515 119.3 112.972 103.07 130.871 89.8445C133.44 87.9486 134.854 84.8617 134.618 81.6793L132.108 47.5318L187.178 23.4409L210.818 48.091C212.983 50.346 216.138 51.3644 219.211 50.8052C241.188 46.7771 263.656 46.1952 285.81 49.0821C288.915 49.4867 292.016 48.3002 294.062 45.9315L316.125 20.3584L372.113 41.9671L371.108 76.0918C371.013 79.3015 372.577 82.3339 375.25 84.1161C393.767 96.4457 410.002 111.908 423.223 129.802C425.123 132.371 428.205 133.785 431.392 133.553L465.535 131.043L489.631 186.113L464.981 209.754C462.726 211.918 461.703 215.068 462.267 218.146C466.29 240.119 466.872 262.578 463.99 284.727C463.585 287.832 464.767 290.928 467.14 292.974L492.704 315.042L471.091 371.035Z" fill="#108C90"></path> <path d="M257.063 145.551C224.403 145.551 197.925 172.024 197.925 204.685C197.925 237.35 224.403 263.823 257.063 263.823C289.724 263.823 316.202 237.345 316.202 204.685C316.166 172.042 289.711 145.587 257.063 145.551ZM257.063 245.201C234.686 245.201 216.547 227.062 216.547 204.685C216.547 182.308 234.686 164.168 257.063 164.168C279.44 164.168 297.58 182.308 297.58 204.685C297.553 227.052 279.431 245.174 257.063 245.201Z" fill="#108C90"></path> </g> <defs> <clipPath id="clip0_143_3699"> <rect width="512" height="512" fill="white"></rect> </clipPath> </defs> </svg> 