<?xml version="1.0" encoding="UTF-8"?> <svg xmlns="http://www.w3.org/2000/svg" width="116" height="116" viewBox="0 0 116 116" fill="none"> <path d="M17.9865 89.9326C16.5635 89.9326 15.1725 90.3546 13.9894 91.1451C12.8062 91.9357 11.8841 93.0593 11.3395 94.374C10.795 95.6886 10.6525 97.1352 10.9301 98.5308C11.2077 99.9264 11.8929 101.208 12.8991 102.215C13.9053 103.221 15.1873 103.906 16.5829 104.184C17.9785 104.461 19.4251 104.319 20.7397 103.774C22.0544 103.23 23.178 102.307 23.9686 101.124C24.7591 99.9412 25.1811 98.5502 25.1811 97.1272C25.1811 95.2191 24.4231 93.3891 23.0738 92.0399C21.7246 90.6906 19.8946 89.9326 17.9865 89.9326ZM17.9865 100.725C17.275 100.725 16.5795 100.514 15.9879 100.118C15.3963 99.723 14.9353 99.1612 14.663 98.5038C14.3907 97.8465 14.3195 97.1232 14.4583 96.4254C14.5971 95.7276 14.9397 95.0866 15.4428 94.5835C15.9459 94.0804 16.5869 93.7378 17.2847 93.599C17.9825 93.4602 18.7058 93.5315 19.3631 93.8037C20.0204 94.076 20.5822 94.5371 20.9775 95.1287C21.3728 95.7202 21.5838 96.4157 21.5838 97.1272C21.5838 98.0813 21.2048 98.9963 20.5301 99.6709C19.8555 100.346 18.9405 100.725 17.9865 100.725Z" fill="#009688"></path> <path d="M107.863 66.55C109.386 65.4292 110.516 63.8555 111.091 62.0539C111.666 60.2524 111.656 58.3152 111.064 56.5194C110.471 54.7236 109.326 53.161 107.792 52.0551C106.258 50.9493 104.414 50.3567 102.523 50.3621H72.1852L74.0126 35.7355C74.2341 33.9636 74.076 32.1649 73.5491 30.4587C73.0221 28.7526 72.1383 27.178 70.9562 25.8396C69.7741 24.5012 68.3208 23.4296 66.6929 22.6958C65.0649 21.962 63.2995 21.583 61.5138 21.5837H60.7278C59.4125 21.5837 58.1425 22.064 57.1565 22.9344C56.1705 23.8049 55.5363 25.0055 55.3732 26.3106L54.5315 33.0303C53.9273 37.812 51.6012 42.2095 47.9885 45.3998C44.3758 48.59 39.7242 50.3542 34.9046 50.3621H32.3757V44.9662C32.3757 44.4892 32.1862 44.0317 31.8489 43.6944C31.5116 43.357 31.0541 43.1675 30.577 43.1675H5.39594C4.91891 43.1675 4.46141 43.357 4.1241 43.6944C3.78679 44.0317 3.59729 44.4892 3.59729 44.9662V109.718C3.59729 110.195 3.78679 110.652 4.1241 110.989C4.46141 111.327 4.91891 111.516 5.39594 111.516H30.577C31.0541 111.516 31.5116 111.327 31.8489 110.989C32.1862 110.652 32.3757 110.195 32.3757 109.718V104.949C32.4243 104.949 32.471 104.975 32.5196 104.978C33.7687 105.065 34.9723 105.482 36.0072 106.187C41.0862 109.665 47.1001 111.524 53.2562 111.516H93.5298C95.9141 111.513 98.1999 110.565 99.8858 108.879C101.572 107.193 102.52 104.907 102.523 102.523C102.515 100.499 101.817 98.5375 100.545 96.9634C102.117 96.6848 103.587 95.9897 104.8 94.9504C106.013 93.911 106.925 92.5655 107.441 91.054C107.957 89.5424 108.059 87.9201 107.735 86.3559C107.411 84.7917 106.674 83.343 105.601 82.1605C107.127 81.6133 108.475 80.661 109.501 79.4058C110.527 78.1505 111.191 76.6397 111.424 75.0353C111.657 73.431 111.448 71.7936 110.821 70.2987C110.193 68.8039 109.171 67.508 107.863 66.55ZM107.919 59.3554C107.919 60.7865 107.35 62.159 106.339 63.1709C105.327 64.1828 103.954 64.7513 102.523 64.7513H88.1338C86.7027 64.7513 85.3303 64.1828 84.3183 63.1709C83.3064 62.159 82.7379 60.7865 82.7379 59.3554C82.7379 57.9243 83.3064 56.5518 84.3183 55.5399C85.3303 54.5279 86.7027 53.9594 88.1338 53.9594H102.523C103.954 53.9594 105.327 54.5279 106.339 55.5399C107.35 56.5518 107.919 57.9243 107.919 59.3554ZM28.7784 107.919H7.19459V46.7648H28.7784V107.919ZM38.036 103.215C36.5373 102.198 34.8041 101.579 32.9998 101.417L32.3757 101.21V53.9594H34.9046C40.6018 53.9519 46.1008 51.8677 50.3719 48.0972C54.643 44.3268 57.3931 39.1287 58.1072 33.4764L58.9471 26.7567C59.0015 26.3214 59.2131 25.921 59.542 25.6309C59.8709 25.3407 60.2946 25.1807 60.7332 25.181H61.5138C62.7891 25.1809 64.0498 25.452 65.2122 25.9762C66.3747 26.5005 67.4124 27.2661 68.2565 28.222C69.1005 29.178 69.7316 30.3025 70.1078 31.521C70.484 32.7395 70.5968 34.024 70.4387 35.2895L68.3667 51.9018L66.9277 59.8158C66.3989 62.7156 64.8694 65.3378 62.6058 67.2257C60.3422 69.1136 57.488 70.1475 54.5404 70.1473H52.1608C51.6838 70.1473 51.2263 70.3368 50.889 70.6741C50.5517 71.0114 50.3622 71.4689 50.3622 71.9459C50.3622 72.423 50.5517 72.8805 50.889 73.2178C51.2263 73.5551 51.6838 73.7446 52.1608 73.7446H54.5404C58.3315 73.7447 62.0023 72.4142 64.9129 69.9851C67.8236 67.556 69.7893 64.1825 70.4675 60.4526L71.6474 53.9594H80.986C80.2615 54.898 79.7325 55.9723 79.4303 57.1188C79.128 58.2653 79.0587 59.4608 79.2264 60.6346C79.3941 61.8083 79.7953 62.9366 80.4065 63.9526C81.0177 64.9686 81.8263 65.8518 82.7846 66.55C81.7751 67.2853 80.932 68.2252 80.3102 69.3083C79.6885 70.3915 79.3021 71.5936 79.1763 72.8362C79.0506 74.0788 79.1882 75.3339 79.5803 76.5197C79.9724 77.7054 80.6101 78.7952 81.4518 79.7179C80.1114 80.1937 78.9047 80.984 77.9329 82.0226C76.9611 83.0612 76.2526 84.3178 75.8669 85.6868C75.4812 87.0559 75.4296 88.4975 75.7163 89.8907C76.003 91.2838 76.6197 92.5879 77.5146 93.6934C75.4488 94.0732 73.581 95.164 72.2353 96.7768C70.8897 98.3896 70.1509 100.423 70.1473 102.523C70.1539 104.475 70.8024 106.371 71.9927 107.919H53.2562C47.824 107.926 42.5172 106.286 38.036 103.215V103.215ZM93.5298 107.919H79.1406C77.7095 107.919 76.337 107.35 75.3251 106.338C74.3131 105.327 73.7446 103.954 73.7446 102.523C73.7446 101.092 74.3131 99.7194 75.3251 98.7075C76.337 97.6955 77.7095 97.127 79.1406 97.127H93.5298C94.9609 97.127 96.3334 97.6955 97.3453 98.7075C98.3572 99.7194 98.9257 101.092 98.9257 102.523C98.9257 103.954 98.3572 105.327 97.3453 106.338C96.3334 107.35 94.9609 107.919 93.5298 107.919ZM98.9257 93.5297H84.5365C83.1054 93.5297 81.733 92.9612 80.721 91.9493C79.7091 90.9374 79.1406 89.5649 79.1406 88.1338C79.1406 86.7027 79.7091 85.3302 80.721 84.3183C81.733 83.3063 83.1054 82.7378 84.5365 82.7378H98.9257C100.357 82.7378 101.729 83.3063 102.741 84.3183C103.753 85.3302 104.322 86.7027 104.322 88.1338C104.322 89.5649 103.753 90.9374 102.741 91.9493C101.729 92.9612 100.357 93.5297 98.9257 93.5297ZM102.523 79.1405H88.1338C86.7027 79.1405 85.3303 78.572 84.3183 77.5601C83.3064 76.5482 82.7379 75.1757 82.7379 73.7446C82.7379 72.3135 83.3064 70.941 84.3183 69.9291C85.3303 68.9171 86.7027 68.3486 88.1338 68.3486H102.523C103.954 68.3486 105.327 68.9171 106.339 69.9291C107.35 70.941 107.919 72.3135 107.919 73.7446C107.919 75.1757 107.35 76.5482 106.339 77.5601C105.327 78.572 103.954 79.1405 102.523 79.1405Z" fill="#009688"></path> <path d="M62.9527 17.9865C63.4297 17.9865 63.8872 17.797 64.2245 17.4597C64.5619 17.1224 64.7514 16.6649 64.7514 16.1878V5.39594C64.7514 4.91891 64.5619 4.46141 64.2245 4.1241C63.8872 3.78679 63.4297 3.59729 62.9527 3.59729C62.4757 3.59729 62.0182 3.78679 61.6809 4.1241C61.3436 4.46141 61.1541 4.91891 61.1541 5.39594V16.1878C61.1541 16.6649 61.3436 17.1224 61.6809 17.4597C62.0182 17.797 62.4757 17.9865 62.9527 17.9865Z" fill="#009688"></path> <path d="M47.6912 23.2548C47.8571 23.4266 48.0556 23.5636 48.2751 23.6579C48.4945 23.7522 48.7305 23.8018 48.9693 23.8039C49.2082 23.8059 49.445 23.7604 49.6661 23.67C49.8871 23.5796 50.0879 23.446 50.2568 23.2771C50.4257 23.1082 50.5592 22.9074 50.6497 22.6864C50.7401 22.4653 50.7856 22.2285 50.7836 21.9896C50.7815 21.7508 50.7319 21.5148 50.6376 21.2954C50.5433 21.0759 50.4063 20.8775 50.2345 20.7115L42.6046 13.0799C42.2674 12.7424 41.8099 12.5527 41.3327 12.5525C40.8556 12.5523 40.3979 12.7417 40.0604 13.079C39.7229 13.4162 39.5332 13.8737 39.5331 14.3509C39.5329 14.828 39.7223 15.2856 40.0595 15.6231L47.6912 23.2548Z" fill="#009688"></path> <path d="M32.3757 37.7716H43.1676C43.6446 37.7716 44.1021 37.5821 44.4394 37.2448C44.7767 36.9075 44.9662 36.45 44.9662 35.973C44.9662 35.4959 44.7767 35.0384 44.4394 34.7011C44.1021 34.3638 43.6446 34.1743 43.1676 34.1743H32.3757C31.8986 34.1743 31.4411 34.3638 31.1038 34.7011C30.7665 35.0384 30.577 35.4959 30.577 35.973C30.577 36.45 30.7665 36.9075 31.1038 37.2448C31.4411 37.5821 31.8986 37.7716 32.3757 37.7716Z" fill="#009688"></path> <path d="M76.9427 23.7818C77.4197 23.7817 77.8771 23.5922 78.2143 23.2548L85.846 15.6231C86.1833 15.2857 86.3726 14.828 86.3725 14.3509C86.3723 13.8737 86.1826 13.4162 85.8451 13.079C85.5076 12.7417 85.0499 12.5523 84.5728 12.5525C84.0957 12.5527 83.6382 12.7424 83.3009 13.0799L75.671 20.7115C75.4196 20.9631 75.2483 21.2835 75.179 21.6324C75.1096 21.9812 75.1452 22.3428 75.2813 22.6714C75.4174 23.0001 75.6479 23.2809 75.9436 23.4786C76.2393 23.6762 76.587 23.7818 76.9427 23.7818V23.7818Z" fill="#009688"></path> <path d="M80.9392 35.973C80.9392 36.45 81.1287 36.9075 81.466 37.2448C81.8033 37.5821 82.2608 37.7716 82.7379 37.7716H93.5298C94.0068 37.7716 94.4643 37.5821 94.8016 37.2448C95.1389 36.9075 95.3284 36.45 95.3284 35.973C95.3284 35.4959 95.1389 35.0384 94.8016 34.7011C94.4643 34.3638 94.0068 34.1743 93.5298 34.1743H82.7379C82.2608 34.1743 81.8033 34.3638 81.466 34.7011C81.1287 35.0384 80.9392 35.4959 80.9392 35.973Z" fill="#009688"></path> </svg> 