<?xml version="1.0" encoding="UTF-8"?> <svg xmlns="http://www.w3.org/2000/svg" width="116" height="116" viewBox="0 0 116 116" fill="none"> <g clip-path="url(#clip0_170_114)"> <path d="M48.103 7.69678C25.86 7.69678 7.82849 25.7282 7.82849 47.9713C7.82849 70.2143 25.86 88.2458 48.103 88.2458C70.346 88.2458 88.3775 70.2143 88.3775 47.9713C88.3533 25.7383 70.3359 7.72099 48.103 7.69678ZM48.103 11.5324C59.9494 11.5418 71.0506 17.3154 77.8601 27.0094L73.0655 31.8039C71.8987 31.0979 70.563 30.7201 69.1991 30.7108C64.9624 30.7108 61.5278 34.1454 61.5278 38.3821C61.5345 39.7474 61.9102 41.0853 62.6152 42.2542L50.0573 54.8122C47.6794 53.3623 44.6909 53.3623 42.313 54.8122L33.5907 46.0899C34.2958 44.921 34.6714 43.583 34.6782 42.2178C34.6834 37.9894 31.2601 34.5575 27.0318 34.5522C23.5348 34.5479 20.4795 36.9133 19.6078 40.2999H12.4927C16.1238 23.5316 30.946 11.5576 48.103 11.5324ZM73.0348 38.3821C73.0348 40.5006 71.3176 42.2178 69.1991 42.2178C67.0807 42.2178 65.3635 40.5006 65.3635 38.3821C65.3635 36.2636 67.0807 34.5464 69.1991 34.5464C71.3176 34.5464 73.0348 36.2636 73.0348 38.3821ZM50.0208 61.3961C50.0208 63.5146 48.3036 65.2318 46.1851 65.2318C44.0667 65.2318 42.3495 63.5146 42.3495 61.3961C42.3495 59.2776 44.0667 57.5604 46.1851 57.5604C48.3036 57.5604 50.0208 59.2776 50.0208 61.3961ZM30.8425 42.2178C30.8425 44.3363 29.1253 46.0534 27.0068 46.0534C24.8883 46.0534 23.1712 44.3363 23.1712 42.2178C23.1712 40.0993 24.8883 38.3821 27.0068 38.3821C29.1253 38.3821 30.8425 40.0993 30.8425 42.2178ZM65.8079 79.8327C60.392 82.8399 54.2981 84.4154 48.103 84.4099C27.9921 84.4235 11.6778 68.1318 11.6642 48.0209C11.6632 46.723 11.7318 45.4258 11.8694 44.1354H19.6078C20.4797 47.5119 23.5195 49.8757 27.0068 49.8889C28.3721 49.8821 29.71 49.5065 30.8789 48.8014L39.6012 57.5237C38.8962 58.6927 38.5205 60.0306 38.5138 61.3959C38.5138 65.6326 41.9484 69.0672 46.1851 69.0672C50.4219 69.0672 53.8565 65.6326 53.8565 61.3959C53.8498 60.0306 53.4741 58.6927 52.7691 57.5237L65.327 44.9658C66.496 45.6708 67.8339 46.0465 69.1991 46.0532C73.4359 46.0532 76.8705 42.6186 76.8705 38.3819C76.8638 37.0166 76.4881 35.6787 75.7831 34.5098L79.9639 30.3308C89.7245 47.9097 83.3865 70.0724 65.8079 79.8327Z" fill="#009688"></path> <path d="M96.0488 19.2038C99.5362 19.1906 102.576 16.8271 103.448 13.4503H115.227V9.61461H103.448C102.576 6.23779 99.5362 3.8743 96.0488 3.86111C91.8121 3.86111 88.3775 7.29571 88.3775 11.5324C88.3842 12.8977 88.7599 14.2356 89.4649 15.4045L86.0953 18.7742C69.9723 -2.23112 39.8738 -6.18905 18.8685 9.93393C-2.13676 26.0569 -6.09469 56.1556 10.0283 77.1609C25.2473 96.9882 53.1448 101.798 74.1242 88.2112L79.9122 93.9992L82.624 96.7111L98.0626 112.15C101.989 116.076 108.355 116.076 112.281 112.15C116.208 108.223 116.208 101.857 112.281 97.9308L96.8428 82.4922L94.131 79.7804L88.343 73.9924C98.6175 58.1665 98.6175 37.7763 88.343 21.9501L92.1786 18.1144C93.3468 18.8197 94.6843 19.1961 96.0488 19.2038ZM96.0488 7.69678C98.1673 7.69678 99.8845 9.41396 99.8845 11.5324C99.8845 13.6509 98.1673 15.3681 96.0488 15.3681C93.9304 15.3681 92.2132 13.6509 92.2132 11.5324C92.2132 9.41396 93.9306 7.69678 96.0488 7.69678ZM109.57 100.643C112.026 103.044 112.071 106.982 109.67 109.438C107.268 111.894 103.331 111.939 100.874 109.538C100.841 109.505 100.807 109.472 100.774 109.438L85.3358 93.9992L94.131 85.2041L109.57 100.643ZM91.4192 82.4922L82.624 91.2874L77.3154 85.9789C77.5859 85.7717 77.839 85.5435 78.1056 85.3306C78.3722 85.1178 78.6809 84.8627 78.9667 84.623C79.3867 84.2701 79.801 83.9134 80.2075 83.5471C80.4166 83.3553 80.616 83.1635 80.8212 82.9717C81.6076 82.2353 82.3689 81.4739 83.1054 80.6876C83.2972 80.4824 83.4889 80.2829 83.6807 80.0739C84.047 79.6673 84.4038 79.253 84.7566 78.833C84.9971 78.5492 85.233 78.2622 85.4643 77.9719C85.6753 77.7073 85.9035 77.4541 86.1106 77.1837L91.4192 82.4922ZM83.9818 73.5839C83.3777 74.4278 82.7544 75.2544 82.0966 76.0503C81.9048 76.2823 81.6996 76.5067 81.5021 76.7349C80.9152 77.4177 80.3092 78.08 79.684 78.7218C79.4116 79.003 79.1348 79.2799 78.8536 79.5522C78.2142 80.1774 77.5521 80.7835 76.8667 81.3703C76.6384 81.5621 76.4141 81.7711 76.182 81.9648C75.3861 82.6227 74.5595 83.246 73.7157 83.8501C53.8623 98.0336 26.2697 93.4373 12.0861 73.5839C-2.09745 53.7305 2.49888 26.1379 22.3523 11.9544C42.2057 -2.22921 69.7983 2.36688 83.9818 22.2205C94.9569 37.5828 94.9569 58.2216 83.9818 73.5839Z" fill="#009688"></path> </g> <defs> <clipPath id="clip0_170_114"> <rect width="115.114" height="115.114" fill="white" transform="translate(0.113525)"></rect> </clipPath> </defs> </svg> 