<?xml version="1.0" encoding="UTF-8"?> <svg xmlns="http://www.w3.org/2000/svg" width="512" height="512" viewBox="0 0 512 512" fill="none"> <g clip-path="url(#clip0_128_5094)"> <path d="M511.144 237.061C511.441 236.26 511.612 235.421 511.649 234.566C511.649 233.665 511.503 232.768 511.224 231.913L510.565 230.048C503.59 162.636 470.126 100.755 417.526 58.022C413.768 54.9601 409.838 52.1944 405.909 49.3577C405.713 49.195 405.608 48.9656 405.396 48.8113C405.183 48.6569 405.012 48.6736 404.832 48.561C361.344 17.387 309.208 0.579812 255.7 0.479694C253.497 0.479694 251.282 0.479694 249.634 0.650728C221.092 1.20554 192.859 6.6369 166.149 16.7112C142.993 -1.35161 111.56 -4.62628 85.175 8.27632C58.79 21.1789 42.0746 48.002 42.1163 77.3697C42.6294 87.1395 44.8987 96.734 48.8241 105.69C40.1056 117.608 32.4299 130.252 25.8848 143.489C25.7555 143.693 25.6804 143.914 25.5677 144.127C-35.0031 269.369 15.3975 420.067 139.13 483.666C262.858 547.27 414.736 500.553 481.33 378.405C499.568 344.804 509.935 307.497 511.641 269.307C511.908 265.185 512 260.985 512 256.78C512 250.159 511.657 243.598 511.144 237.061V237.061ZM486.319 193.218C485.235 192.254 484.234 191.14 483.099 190.252C471.936 181.775 459.284 175.455 445.797 171.622C433.516 168.539 420.68 168.405 408.337 171.23C397.837 173.607 386.949 173.662 376.424 171.388C356 166.929 339.861 163.412 331.301 149.742C319.04 130.09 324.789 102.47 337.725 92.7502C341.988 89.8093 347.248 88.6871 352.342 89.6299C361.402 90.3724 370.509 88.8373 378.827 85.1705C387.679 81.024 395.542 75.0378 401.896 67.6041C403.51 68.8514 405.216 69.9735 406.797 71.2625C445.351 102.649 473.146 145.283 486.319 193.218ZM119.006 17.5664C152.016 17.6206 178.76 44.3644 178.81 77.3697C178.81 102.925 140.427 161.431 119.006 191.09C98.695 163.642 81.0452 134.316 66.3029 103.513C62.2857 95.3324 59.8746 86.4595 59.2029 77.3697C59.2405 44.356 85.9926 17.6039 119.006 17.5664ZM16.4863 256.78C16.5197 240.861 18.1257 224.98 21.2794 209.374C22.193 221.251 23.7406 231.817 25.1256 240.982C30.4193 276.011 35.4209 309.033 61.2387 339.23C72.0346 351.954 90.1141 373.224 118.068 376.37C146.021 379.515 181.025 363.434 191.137 358.428L195.016 356.471C200.389 353.088 206.53 351.123 212.866 350.756C223.675 351.737 233.686 356.851 240.82 365.031C255.399 381.171 259.099 408.119 248.737 422.699C245.417 427.029 240.832 430.216 235.614 431.818C226.682 434.805 219.09 440.858 214.188 448.905C206.968 461.978 205.624 477.501 210.497 491.621C97.9817 469.821 16.6615 371.389 16.4863 256.78V256.78ZM255.7 495.993C247.444 495.993 239.197 495.568 230.983 494.721C230.282 493.824 229.632 492.889 229.035 491.917C223.262 481.238 223.199 468.377 228.872 457.644C231.955 452.747 236.732 449.155 242.288 447.553C250.435 444.746 257.543 439.527 262.662 432.594C277.521 411.699 273.316 375.498 253.522 353.601C243.227 341.829 228.66 334.654 213.054 333.67H212.674C203.676 333.941 194.908 336.552 187.224 341.249L183.578 343.093C164.91 352.296 138.35 361.394 119.966 359.325C98.7492 356.951 84.0153 339.589 74.2414 328.092C51.5815 301.607 47.1472 272.302 42.0245 238.387C36.5264 209.374 36.3095 179.61 41.3737 150.518C45.9499 141.253 51.1185 132.292 56.8544 123.691C57.138 124.258 57.4509 124.838 57.7095 125.401C58.256 126.486 58.8192 127.562 59.4157 128.646C60.2709 130.261 61.126 131.875 61.9812 133.502C62.5694 134.595 63.1659 135.688 63.775 136.789C64.6802 138.412 65.5938 140.035 66.5157 141.657C67.1331 142.734 67.7463 143.814 68.372 144.89C69.3231 146.513 70.2742 148.128 71.2337 149.742C71.8636 150.801 72.4893 151.853 73.1276 152.904C74.1371 154.61 75.1549 156.208 76.1728 157.856C76.7526 158.79 77.3242 159.737 77.879 160.659C79.1429 162.686 80.3986 164.651 81.6542 166.641C81.9879 167.154 82.3217 167.692 82.647 168.197C84.2114 170.621 85.7632 172.986 87.2858 175.293C87.8657 176.148 88.4288 177.003 88.9961 177.858C89.9347 179.268 90.8733 180.678 91.7869 182.026L93.8143 184.992C94.5485 186.076 95.291 187.161 96.0085 188.195L98.0567 191.14C98.6908 192.058 99.3249 192.955 99.9298 193.814C100.535 194.678 101.219 195.654 101.853 196.534C102.483 197.414 102.912 198.028 103.417 198.737L105.123 201.094L106.517 203.025L107.877 204.898L108.986 206.4L110.029 207.818L110.651 208.673C111.414 209.708 111.994 210.484 112.157 210.697C113.767 212.849 116.299 214.117 118.99 214.117C121.68 214.117 124.212 212.849 125.823 210.697C132.993 201.19 195.896 116.858 195.896 77.3697C195.896 74.8751 195.742 72.3972 195.504 69.936C195.429 69.1768 195.308 68.4175 195.212 67.6583C194.991 65.948 194.728 64.2377 194.361 62.5315C194.198 61.6763 194.019 60.8754 193.831 60.0536C193.435 58.3433 192.976 56.6371 192.455 54.9268C192.242 54.2426 192.063 53.5501 191.837 52.8785C191.07 50.5883 190.206 48.3232 189.226 46.1206C189.038 45.6993 188.813 45.2654 188.617 44.8817C187.762 43.1046 186.911 41.3442 185.926 39.6255C185.501 38.8579 185.029 38.1154 184.571 37.3604C183.749 36.013 182.894 34.6864 182.005 33.3807C181.475 32.6215 180.937 31.8623 180.382 31.1156C180.09 30.7401 179.844 30.3396 179.527 29.9725C197.302 23.9864 215.736 20.1652 234.429 18.5926C221.109 43.7345 216.758 66.9909 221.731 87.7944C225.439 101.727 232.477 114.555 242.238 125.171C250.277 135.125 256.058 142.3 255.7 154.014C254.965 178.788 226.987 199.413 216.399 207.205C202.512 217.204 186.99 224.7 170.525 229.364C155.007 234.433 141.62 238.804 136.502 254.081C131.442 274.254 139.751 295.421 157.188 306.759C167.638 312.403 179.953 313.492 191.232 309.767C203.589 306.897 216.362 306.283 228.935 307.965C245.166 310.263 259.162 312.236 265.799 321.53C269.737 327.083 269.532 332.823 268.765 343.352C267.013 358.257 268.527 373.366 273.195 387.629C277.091 399.317 282.977 416.967 297.119 419.003C298.037 419.149 298.967 419.224 299.893 419.224C309.901 419.224 316.024 410.389 322.465 401.094C325.31 396.985 328.447 392.551 332.206 388.1C349.789 416.508 367.651 440.215 368.482 441.342C370.096 443.494 372.628 444.758 375.315 444.758C378.005 444.758 380.537 443.494 382.152 441.342C400.686 416.521 417.581 390.507 432.719 363.48C443.215 366.521 453.21 371.076 462.387 377.004C419.641 450.69 340.887 496.031 255.7 495.993V495.993ZM415.161 263.504C427.855 274.826 435.114 291.028 435.11 308.04C435.11 314.184 432.615 326.365 420.768 349.501C407.244 374.568 392.059 398.696 375.306 421.727C367.268 410.526 353.435 390.645 341.058 369.749C334.158 358.294 327.997 346.418 322.603 334.183C318.586 326.002 316.175 317.129 315.503 308.04C315.54 275.026 342.293 248.274 375.306 248.236C377.154 248.236 378.986 248.32 380.809 248.487C393.582 249.642 405.638 254.915 415.161 263.504V263.504ZM494.613 268.427C493.14 300.923 484.951 332.76 470.555 361.932C461.194 356.013 451.107 351.315 440.553 347.953C447.153 335.601 451.12 322.006 452.196 308.04C452.125 278.722 435.456 251.974 409.163 238.992L408.624 238.754C406.714 237.833 404.774 236.969 402.793 236.193C401.433 235.663 400.023 235.25 398.629 234.808C397.774 234.55 397.007 234.228 396.176 233.953C393.974 233.327 391.734 232.818 389.481 232.397H389.369C388.004 232.143 386.619 232.005 385.235 231.825C363.267 228.784 341.062 235.446 324.397 250.076C307.727 264.71 298.245 285.864 298.416 308.04C299.08 319.428 301.954 330.583 306.876 340.874C311.665 351.778 317.067 362.403 323.058 372.695C317.718 378.539 312.829 384.775 308.428 391.354C306.079 395.379 303.113 399.009 299.639 402.112C297.928 401.854 294.762 398.208 289.385 382.222C285.464 370.087 284.233 357.239 285.789 344.582C288.008 333.215 285.827 321.43 279.69 311.611C268.782 296.355 249.738 293.669 231.208 291.041C216.804 289.072 202.162 289.731 187.995 292.98C177.066 295.07 171.993 295.85 166.191 292.234C155.591 284.967 150.293 272.114 152.692 259.487C154.973 252.654 161.811 250.184 175.76 245.604C193.977 240.377 211.147 232.034 226.515 220.942C238.963 211.81 271.798 187.578 272.786 154.518C273.333 136.43 264.285 125.272 255.537 114.484C247.452 105.824 241.571 95.3491 238.383 83.9399C233.845 64.9051 239.468 42.5831 254.719 17.5664H255.7C302.734 17.6331 348.713 31.5327 387.908 57.534C383.382 62.5774 377.905 66.6738 371.785 69.5898C365.828 72.1678 359.317 73.1856 352.855 72.5516C343.869 71.4419 334.8 73.7738 327.463 79.08C308.09 93.6638 299.409 130.853 316.821 158.782C329.215 178.576 350.385 183.189 373.504 188.229C385.948 190.857 398.809 190.802 411.232 188.066C421.202 185.688 431.597 185.717 441.55 188.162C452.751 191.391 463.263 196.655 472.566 203.684C482.227 211.698 489.552 222.16 493.778 233.978C494.479 241.524 494.913 249.092 494.913 256.78C494.913 260.601 494.838 264.468 494.579 268.427H494.613Z" fill="#7EC752"></path> <path d="M119.006 103C137.878 103 153.18 87.7029 153.18 68.8267C153.18 49.9546 137.878 34.6533 119.006 34.6533C100.134 34.6533 84.833 49.9546 84.833 68.8267C84.833 87.7029 100.134 103 119.006 103ZM119.006 51.74C128.442 51.74 136.093 59.3906 136.093 68.8267C136.093 78.2627 128.442 85.9133 119.006 85.9133C109.57 85.9133 101.92 78.2627 101.92 68.8267C101.92 59.3906 109.57 51.74 119.006 51.74Z" fill="#7EC752"></path> <path d="M341.133 299.497C341.133 318.373 356.434 333.67 375.306 333.67C394.178 333.67 409.479 318.373 409.479 299.497C409.479 280.624 394.178 265.323 375.306 265.323C356.434 265.323 341.133 280.624 341.133 299.497ZM392.393 299.497C392.393 308.933 384.742 316.583 375.306 316.583C365.87 316.583 358.219 308.933 358.219 299.497C358.219 290.061 365.87 282.41 375.306 282.41C384.742 282.41 392.393 290.061 392.393 299.497Z" fill="#7EC752"></path> </g> <defs> <clipPath id="clip0_128_5094"> <rect width="512" height="512" fill="white"></rect> </clipPath> </defs> </svg> 