<?xml version="1.0" encoding="UTF-8"?> <svg xmlns="http://www.w3.org/2000/svg" width="512" height="512" viewBox="0 0 512 512" fill="none"> <path d="M456 48H287.2C285.343 38.9713 280.431 30.8588 273.29 25.0297C266.149 19.2007 257.218 16.0116 248 16H56C45.3952 16.0127 35.2285 20.2311 27.7298 27.7298C20.2311 35.2285 16.0127 45.3952 16 56V424C16.0127 434.605 20.2311 444.772 27.7298 452.27C35.2285 459.769 45.3952 463.987 56 464H224.8C226.657 473.029 231.569 481.141 238.71 486.97C245.851 492.799 254.782 495.988 264 496H456C466.605 495.987 476.772 491.769 484.27 484.27C491.769 476.772 495.987 466.605 496 456V88C495.987 77.3952 491.769 67.2285 484.27 59.7298C476.772 52.2311 466.605 48.0127 456 48V48ZM312 64H408V80H312V64ZM104 32H200V48H104V32ZM480 456C480 462.365 477.471 468.47 472.971 472.971C468.47 477.471 462.365 480 456 480H264C257.635 480 251.53 477.471 247.029 472.971C242.529 468.47 240 462.365 240 456V416H224V448H56C49.6348 448 43.5303 445.471 39.0294 440.971C34.5286 436.47 32 430.365 32 424V56C32 49.6348 34.5286 43.5303 39.0294 39.0294C43.5303 34.5286 49.6348 32 56 32H88V48C88 52.2435 89.6857 56.3131 92.6863 59.3137C95.6869 62.3143 99.7565 64 104 64H200C204.243 64 208.313 62.3143 211.314 59.3137C214.314 56.3131 216 52.2435 216 48V32H248C252.946 32.0205 257.765 33.5687 261.798 36.4327C265.83 39.2967 268.879 43.3367 270.528 48H264C253.395 48.0127 243.228 52.2311 235.73 59.7298C228.231 67.2285 224.013 77.3952 224 88V152H240V88C240 81.6348 242.529 75.5303 247.029 71.0294C251.53 66.5286 257.635 64 264 64H296V80C296 84.2435 297.686 88.3131 300.686 91.3137C303.687 94.3143 307.757 96 312 96H408C412.243 96 416.313 94.3143 419.314 91.3137C422.314 88.3131 424 84.2435 424 80V64H456C462.365 64 468.47 66.5286 472.971 71.0294C477.471 75.5303 480 81.6348 480 88V456Z" fill="#2683E8"></path> <path d="M365.216 338.472C371.134 338.207 376.74 335.742 380.936 331.56C385.435 327.059 387.963 320.956 387.963 314.592C387.963 308.228 385.435 302.125 380.936 297.624L372.472 289.16L378.136 283.504C378.184 283.456 378.2 283.384 378.248 283.336L400.736 260.848C402.236 259.348 403.078 257.313 403.078 255.192C403.078 253.071 402.236 251.036 400.736 249.536L321.536 170.336C320.036 168.836 318.002 167.994 315.88 167.994C313.759 167.994 311.724 168.836 310.224 170.336L289.288 191.28L277.032 193.68L253.656 170.304C252.15 168.818 250.116 167.99 248 168H217.368L197.088 147.72C195.588 146.22 193.553 145.378 191.432 145.378C189.311 145.378 187.276 146.22 185.776 147.72L106.576 226.92C105.076 228.42 104.234 230.455 104.234 232.576C104.234 234.697 105.076 236.732 106.576 238.232L164.176 295.832C162.456 299.379 161.644 303.299 161.813 307.238C161.982 311.177 163.128 315.012 165.147 318.398C167.166 321.785 169.995 324.616 173.379 326.639C176.763 328.661 180.597 329.811 184.536 329.984C184.782 335.907 187.244 341.522 191.434 345.715C195.624 349.908 201.237 352.374 207.16 352.624C207.416 358.539 209.884 364.142 214.076 368.323C218.267 372.505 223.877 374.959 229.792 375.2C230.039 379.815 231.616 384.26 234.332 388C237.049 391.739 240.789 394.612 245.102 396.273C249.415 397.934 254.117 398.312 258.64 397.36C263.163 396.409 267.314 394.17 270.592 390.912L279.096 399.416C282.365 402.711 286.523 404.983 291.061 405.955C295.6 406.927 300.324 406.556 304.655 404.888C308.987 403.22 312.739 400.328 315.454 396.563C318.169 392.798 319.729 388.325 319.944 383.688C325.867 383.442 331.481 380.978 335.672 376.786C339.863 372.594 342.324 366.979 342.568 361.056C348.489 360.809 354.1 358.347 358.292 354.158C362.483 349.97 364.949 344.36 365.2 338.44L365.216 338.472ZM369.616 320.248C368.096 321.707 366.071 322.522 363.964 322.522C361.857 322.522 359.832 321.707 358.312 320.248L347 308.936C345.497 307.436 344.651 305.4 344.649 303.276C344.647 301.153 345.488 299.115 346.988 297.612C348.488 296.109 350.524 295.263 352.648 295.261C354.771 295.258 356.809 296.1 358.312 297.6L369.6 308.936C371.1 310.436 371.942 312.471 371.942 314.592C371.942 316.713 371.1 318.748 369.6 320.248H369.616ZM315.88 187.312L383.768 255.2L372.456 266.512L304.576 198.624L315.88 187.312ZM191.432 164.688L202.744 176L134.864 243.88L123.544 232.568L191.432 164.688ZM217.368 184H244.688L307.392 246.712C308.156 247.45 308.766 248.333 309.185 249.309C309.604 250.285 309.825 251.335 309.834 252.397C309.843 253.459 309.641 254.512 309.239 255.496C308.837 256.479 308.242 257.372 307.491 258.123C306.74 258.874 305.847 259.468 304.864 259.871C303.881 260.273 302.827 260.475 301.765 260.466C300.703 260.457 299.653 260.236 298.677 259.817C297.701 259.398 296.818 258.788 296.08 258.024L262.144 224.088C260.644 222.588 258.61 221.746 256.488 221.746C254.367 221.746 252.332 222.588 250.832 224.088C248.604 226.317 245.958 228.085 243.046 229.292C240.133 230.498 237.012 231.119 233.86 231.119C230.708 231.119 227.587 230.498 224.675 229.292C221.763 228.085 219.117 226.317 216.888 224.088L205.6 235.4C208.501 238.252 211.822 240.643 215.448 242.488L174.48 283.48L146.176 255.2L217.368 184ZM253.6 381.92C252.034 381.926 250.501 381.469 249.194 380.606C247.887 379.744 246.865 378.514 246.254 377.072C245.644 375.63 245.473 374.04 245.764 372.501C246.055 370.962 246.794 369.544 247.888 368.424L248 368.336L270.608 345.744L259.312 334.4L236.632 357.024L236.56 357.112C235.027 358.479 233.026 359.204 230.972 359.136C228.918 359.068 226.97 358.213 225.53 356.747C224.09 355.281 223.269 353.318 223.237 351.263C223.206 349.209 223.966 347.221 225.36 345.712L248 323.08L236.688 311.768L214.056 334.4C212.535 335.86 210.508 336.675 208.4 336.675C206.292 336.675 204.265 335.86 202.744 334.4C201.244 332.9 200.402 330.865 200.402 328.744C200.402 326.623 201.244 324.588 202.744 323.088L225.368 300.464L214.056 289.152L191.432 311.776C190.313 312.894 188.888 313.656 187.336 313.965C185.785 314.273 184.177 314.115 182.715 313.509C181.253 312.904 180.004 311.879 179.125 310.564C178.246 309.248 177.777 307.702 177.776 306.12C177.772 305.069 177.978 304.028 178.38 303.057C178.783 302.086 179.374 301.204 180.12 300.464L233.6 246.952C241.525 247.067 249.305 244.816 255.944 240.488L284.8 269.336C287.022 271.595 289.669 273.391 292.588 274.622C295.508 275.852 298.642 276.493 301.81 276.506C304.978 276.519 308.117 275.905 311.047 274.699C313.977 273.493 316.638 271.719 318.879 269.479C321.119 267.239 322.894 264.577 324.101 261.648C325.308 258.719 325.923 255.579 325.91 252.411C325.898 249.243 325.258 246.109 324.028 243.189C322.798 240.269 321.002 237.622 318.744 235.4L290.664 207.32L361.184 277.848L358.696 280.336C354.674 279.293 350.452 279.293 346.43 280.338C342.408 281.382 338.719 283.436 335.712 286.304C331.524 290.502 329.058 296.116 328.8 302.04C322.881 302.287 317.27 304.749 313.08 308.938C308.89 313.127 306.426 318.737 306.176 324.656C300.214 324.907 294.568 327.402 290.368 331.64C286.168 335.879 283.725 341.548 283.528 347.512C279.968 347.611 276.478 348.521 273.323 350.174C270.169 351.827 267.433 354.178 265.326 357.049C263.218 359.919 261.794 363.234 261.163 366.738C260.531 370.243 260.708 373.846 261.68 377.272L259.336 379.616C258.583 380.364 257.687 380.953 256.701 381.349C255.716 381.745 254.662 381.939 253.6 381.92V381.92ZM301.744 388.136C301.001 388.88 300.119 389.47 299.148 389.872C298.177 390.275 297.136 390.482 296.084 390.482C295.033 390.482 293.992 390.275 293.021 389.872C292.049 389.47 291.167 388.88 290.424 388.136L279.112 376.8C277.764 375.274 277.048 373.292 277.11 371.257C277.173 369.222 278.009 367.287 279.448 365.847C280.887 364.407 282.821 363.57 284.856 363.506C286.891 363.442 288.874 364.157 290.4 365.504L301.744 376.8C303.244 378.3 304.086 380.335 304.086 382.456C304.086 384.577 303.244 386.612 301.744 388.112V388.136ZM324.368 365.504C322.868 367.004 320.834 367.846 318.712 367.846C316.591 367.846 314.556 367.004 313.056 365.504L301.744 354.192C301.001 353.449 300.411 352.567 300.009 351.597C299.606 350.626 299.399 349.586 299.399 348.535C299.398 347.484 299.605 346.443 300.007 345.473C300.408 344.502 300.997 343.619 301.74 342.876C302.483 342.133 303.365 341.543 304.335 341.141C305.306 340.738 306.347 340.531 307.397 340.53C308.448 340.53 309.489 340.737 310.46 341.138C311.431 341.54 312.313 342.129 313.056 342.872L324.368 354.184C325.112 354.927 325.702 355.809 326.105 356.78C326.507 357.752 326.714 358.793 326.714 359.844C326.714 360.895 326.507 361.936 326.105 362.908C325.702 363.879 325.112 364.761 324.368 365.504V365.504ZM347 342.872C346.257 343.616 345.375 344.206 344.404 344.608C343.433 345.011 342.392 345.218 341.34 345.218C340.289 345.218 339.248 345.011 338.277 344.608C337.305 344.206 336.423 343.616 335.68 342.872L324.368 331.56C322.911 330.051 322.105 328.03 322.123 325.933C322.141 323.835 322.982 321.829 324.466 320.345C325.949 318.862 327.955 318.021 330.053 318.003C332.151 317.984 334.171 318.791 335.68 320.248L346.992 331.56C348.492 333.06 349.334 335.095 349.334 337.216C349.334 339.337 348.492 341.372 346.992 342.872H347Z" fill="#2683E8"></path> <path d="M378.344 162.344L389.656 173.656L413.656 149.656C415.156 148.156 415.998 146.121 415.998 144C415.998 141.879 415.156 139.844 413.656 138.344L389.656 114.344L378.344 125.656L388.688 136H288V152H388.688L378.344 162.344Z" fill="#2683E8"></path> <path d="M133.656 381.656L122.344 370.344L98.3442 394.344C96.8445 395.844 96.002 397.879 96.002 400C96.002 402.121 96.8445 404.156 98.3442 405.656L122.344 429.656L133.656 418.344L123.312 408H208V392H123.312L133.656 381.656Z" fill="#2683E8"></path> <path d="M400 368H448V384H400V368Z" fill="#2683E8"></path> <path d="M368 368H384V384H368V368Z" fill="#2683E8"></path> <path d="M368 400H448V416H368V400Z" fill="#2683E8"></path> <path d="M368 432H448V448H368V432Z" fill="#2683E8"></path> <path d="M96 96H144V112H96V96Z" fill="#2683E8"></path> <path d="M64 96H80V112H64V96Z" fill="#2683E8"></path> <path d="M64 128H144V144H64V128Z" fill="#2683E8"></path> </svg> 